G04 #@! TF.GenerationSoftware,KiCad,Pcbnew,(6.0.8)*
G04 #@! TF.CreationDate,2022-10-24T22:40:05+02:00*
G04 #@! TF.ProjectId,pcdu,70636475-2e6b-4696-9361-645f70636258,rev?*
G04 #@! TF.SameCoordinates,Original*
G04 #@! TF.FileFunction,Legend,Bot*
G04 #@! TF.FilePolarity,Positive*
%FSLAX46Y46*%
G04 Gerber Fmt 4.6, Leading zero omitted, Abs format (unit mm)*
G04 Created by KiCad (PCBNEW (6.0.8)) date 2022-10-24 22:40:05*
%MOMM*%
%LPD*%
G01*
G04 APERTURE LIST*
%ADD10C,0.150000*%
%ADD11C,0.120000*%
G04 APERTURE END LIST*
D10*
X102671428Y-112248571D02*
X102528571Y-112296190D01*
X102480952Y-112343809D01*
X102433333Y-112439047D01*
X102433333Y-112581904D01*
X102480952Y-112677142D01*
X102528571Y-112724761D01*
X102623809Y-112772380D01*
X103004761Y-112772380D01*
X103004761Y-111772380D01*
X102671428Y-111772380D01*
X102576190Y-111820000D01*
X102528571Y-111867619D01*
X102480952Y-111962857D01*
X102480952Y-112058095D01*
X102528571Y-112153333D01*
X102576190Y-112200952D01*
X102671428Y-112248571D01*
X103004761Y-112248571D01*
X101576190Y-112772380D02*
X101576190Y-112248571D01*
X101623809Y-112153333D01*
X101719047Y-112105714D01*
X101909523Y-112105714D01*
X102004761Y-112153333D01*
X101576190Y-112724761D02*
X101671428Y-112772380D01*
X101909523Y-112772380D01*
X102004761Y-112724761D01*
X102052380Y-112629523D01*
X102052380Y-112534285D01*
X102004761Y-112439047D01*
X101909523Y-112391428D01*
X101671428Y-112391428D01*
X101576190Y-112343809D01*
X101242857Y-112105714D02*
X100861904Y-112105714D01*
X101100000Y-111772380D02*
X101100000Y-112629523D01*
X101052380Y-112724761D01*
X100957142Y-112772380D01*
X100861904Y-112772380D01*
X100671428Y-112105714D02*
X100290476Y-112105714D01*
X100528571Y-111772380D02*
X100528571Y-112629523D01*
X100480952Y-112724761D01*
X100385714Y-112772380D01*
X100290476Y-112772380D01*
X99576190Y-112724761D02*
X99671428Y-112772380D01*
X99861904Y-112772380D01*
X99957142Y-112724761D01*
X100004761Y-112629523D01*
X100004761Y-112248571D01*
X99957142Y-112153333D01*
X99861904Y-112105714D01*
X99671428Y-112105714D01*
X99576190Y-112153333D01*
X99528571Y-112248571D01*
X99528571Y-112343809D01*
X100004761Y-112439047D01*
X99100000Y-112772380D02*
X99100000Y-112105714D01*
X99100000Y-112296190D02*
X99052380Y-112200952D01*
X99004761Y-112153333D01*
X98909523Y-112105714D01*
X98814285Y-112105714D01*
X98576190Y-112105714D02*
X98338095Y-112772380D01*
X98100000Y-112105714D02*
X98338095Y-112772380D01*
X98433333Y-113010476D01*
X98480952Y-113058095D01*
X98576190Y-113105714D01*
X102695238Y-114287142D02*
X102742857Y-114334761D01*
X102885714Y-114382380D01*
X102980952Y-114382380D01*
X103123809Y-114334761D01*
X103219047Y-114239523D01*
X103266666Y-114144285D01*
X103314285Y-113953809D01*
X103314285Y-113810952D01*
X103266666Y-113620476D01*
X103219047Y-113525238D01*
X103123809Y-113430000D01*
X102980952Y-113382380D01*
X102885714Y-113382380D01*
X102742857Y-113430000D01*
X102695238Y-113477619D01*
X102266666Y-114382380D02*
X102266666Y-113382380D01*
X101838095Y-114382380D02*
X101838095Y-113858571D01*
X101885714Y-113763333D01*
X101980952Y-113715714D01*
X102123809Y-113715714D01*
X102219047Y-113763333D01*
X102266666Y-113810952D01*
X100933333Y-114382380D02*
X100933333Y-113858571D01*
X100980952Y-113763333D01*
X101076190Y-113715714D01*
X101266666Y-113715714D01*
X101361904Y-113763333D01*
X100933333Y-114334761D02*
X101028571Y-114382380D01*
X101266666Y-114382380D01*
X101361904Y-114334761D01*
X101409523Y-114239523D01*
X101409523Y-114144285D01*
X101361904Y-114049047D01*
X101266666Y-114001428D01*
X101028571Y-114001428D01*
X100933333Y-113953809D01*
X100457142Y-114382380D02*
X100457142Y-113715714D01*
X100457142Y-113906190D02*
X100409523Y-113810952D01*
X100361904Y-113763333D01*
X100266666Y-113715714D01*
X100171428Y-113715714D01*
X99409523Y-113715714D02*
X99409523Y-114525238D01*
X99457142Y-114620476D01*
X99504761Y-114668095D01*
X99600000Y-114715714D01*
X99742857Y-114715714D01*
X99838095Y-114668095D01*
X99409523Y-114334761D02*
X99504761Y-114382380D01*
X99695238Y-114382380D01*
X99790476Y-114334761D01*
X99838095Y-114287142D01*
X99885714Y-114191904D01*
X99885714Y-113906190D01*
X99838095Y-113810952D01*
X99790476Y-113763333D01*
X99695238Y-113715714D01*
X99504761Y-113715714D01*
X99409523Y-113763333D01*
X98552380Y-114334761D02*
X98647619Y-114382380D01*
X98838095Y-114382380D01*
X98933333Y-114334761D01*
X98980952Y-114239523D01*
X98980952Y-113858571D01*
X98933333Y-113763333D01*
X98838095Y-113715714D01*
X98647619Y-113715714D01*
X98552380Y-113763333D01*
X98504761Y-113858571D01*
X98504761Y-113953809D01*
X98980952Y-114049047D01*
X98076190Y-114382380D02*
X98076190Y-113715714D01*
X98076190Y-113906190D02*
X98028571Y-113810952D01*
X97980952Y-113763333D01*
X97885714Y-113715714D01*
X97790476Y-113715714D01*
X153650000Y-118079761D02*
X153507142Y-118127380D01*
X153269047Y-118127380D01*
X153173809Y-118079761D01*
X153126190Y-118032142D01*
X153078571Y-117936904D01*
X153078571Y-117841666D01*
X153126190Y-117746428D01*
X153173809Y-117698809D01*
X153269047Y-117651190D01*
X153459523Y-117603571D01*
X153554761Y-117555952D01*
X153602380Y-117508333D01*
X153650000Y-117413095D01*
X153650000Y-117317857D01*
X153602380Y-117222619D01*
X153554761Y-117175000D01*
X153459523Y-117127380D01*
X153221428Y-117127380D01*
X153078571Y-117175000D01*
X152507142Y-118127380D02*
X152602380Y-118079761D01*
X152650000Y-118032142D01*
X152697619Y-117936904D01*
X152697619Y-117651190D01*
X152650000Y-117555952D01*
X152602380Y-117508333D01*
X152507142Y-117460714D01*
X152364285Y-117460714D01*
X152269047Y-117508333D01*
X152221428Y-117555952D01*
X152173809Y-117651190D01*
X152173809Y-117936904D01*
X152221428Y-118032142D01*
X152269047Y-118079761D01*
X152364285Y-118127380D01*
X152507142Y-118127380D01*
X151602380Y-118127380D02*
X151697619Y-118079761D01*
X151745238Y-117984523D01*
X151745238Y-117127380D01*
X150792857Y-118127380D02*
X150792857Y-117603571D01*
X150840476Y-117508333D01*
X150935714Y-117460714D01*
X151126190Y-117460714D01*
X151221428Y-117508333D01*
X150792857Y-118079761D02*
X150888095Y-118127380D01*
X151126190Y-118127380D01*
X151221428Y-118079761D01*
X151269047Y-117984523D01*
X151269047Y-117889285D01*
X151221428Y-117794047D01*
X151126190Y-117746428D01*
X150888095Y-117746428D01*
X150792857Y-117698809D01*
X150316666Y-118127380D02*
X150316666Y-117460714D01*
X150316666Y-117651190D02*
X150269047Y-117555952D01*
X150221428Y-117508333D01*
X150126190Y-117460714D01*
X150030952Y-117460714D01*
X148983333Y-117841666D02*
X148507142Y-117841666D01*
X149078571Y-118127380D02*
X148745238Y-117127380D01*
X148411904Y-118127380D01*
X148078571Y-118127380D02*
X148078571Y-117460714D01*
X148078571Y-117651190D02*
X148030952Y-117555952D01*
X147983333Y-117508333D01*
X147888095Y-117460714D01*
X147792857Y-117460714D01*
X147459523Y-118127380D02*
X147459523Y-117460714D01*
X147459523Y-117651190D02*
X147411904Y-117555952D01*
X147364285Y-117508333D01*
X147269047Y-117460714D01*
X147173809Y-117460714D01*
X146411904Y-118127380D02*
X146411904Y-117603571D01*
X146459523Y-117508333D01*
X146554761Y-117460714D01*
X146745238Y-117460714D01*
X146840476Y-117508333D01*
X146411904Y-118079761D02*
X146507142Y-118127380D01*
X146745238Y-118127380D01*
X146840476Y-118079761D01*
X146888095Y-117984523D01*
X146888095Y-117889285D01*
X146840476Y-117794047D01*
X146745238Y-117746428D01*
X146507142Y-117746428D01*
X146411904Y-117698809D01*
X146030952Y-117460714D02*
X145792857Y-118127380D01*
X145554761Y-117460714D02*
X145792857Y-118127380D01*
X145888095Y-118365476D01*
X145935714Y-118413095D01*
X146030952Y-118460714D01*
X143840476Y-118127380D02*
X144173809Y-117651190D01*
X144411904Y-118127380D02*
X144411904Y-117127380D01*
X144030952Y-117127380D01*
X143935714Y-117175000D01*
X143888095Y-117222619D01*
X143840476Y-117317857D01*
X143840476Y-117460714D01*
X143888095Y-117555952D01*
X143935714Y-117603571D01*
X144030952Y-117651190D01*
X144411904Y-117651190D01*
X143030952Y-118079761D02*
X143126190Y-118127380D01*
X143316666Y-118127380D01*
X143411904Y-118079761D01*
X143459523Y-117984523D01*
X143459523Y-117603571D01*
X143411904Y-117508333D01*
X143316666Y-117460714D01*
X143126190Y-117460714D01*
X143030952Y-117508333D01*
X142983333Y-117603571D01*
X142983333Y-117698809D01*
X143459523Y-117794047D01*
X142126190Y-117460714D02*
X142126190Y-118270238D01*
X142173809Y-118365476D01*
X142221428Y-118413095D01*
X142316666Y-118460714D01*
X142459523Y-118460714D01*
X142554761Y-118413095D01*
X142126190Y-118079761D02*
X142221428Y-118127380D01*
X142411904Y-118127380D01*
X142507142Y-118079761D01*
X142554761Y-118032142D01*
X142602380Y-117936904D01*
X142602380Y-117651190D01*
X142554761Y-117555952D01*
X142507142Y-117508333D01*
X142411904Y-117460714D01*
X142221428Y-117460714D01*
X142126190Y-117508333D01*
X141221428Y-117460714D02*
X141221428Y-118127380D01*
X141650000Y-117460714D02*
X141650000Y-117984523D01*
X141602380Y-118079761D01*
X141507142Y-118127380D01*
X141364285Y-118127380D01*
X141269047Y-118079761D01*
X141221428Y-118032142D01*
X140602380Y-118127380D02*
X140697619Y-118079761D01*
X140745238Y-117984523D01*
X140745238Y-117127380D01*
X139792857Y-118127380D02*
X139792857Y-117603571D01*
X139840476Y-117508333D01*
X139935714Y-117460714D01*
X140126190Y-117460714D01*
X140221428Y-117508333D01*
X139792857Y-118079761D02*
X139888095Y-118127380D01*
X140126190Y-118127380D01*
X140221428Y-118079761D01*
X140269047Y-117984523D01*
X140269047Y-117889285D01*
X140221428Y-117794047D01*
X140126190Y-117746428D01*
X139888095Y-117746428D01*
X139792857Y-117698809D01*
X139459523Y-117460714D02*
X139078571Y-117460714D01*
X139316666Y-117127380D02*
X139316666Y-117984523D01*
X139269047Y-118079761D01*
X139173809Y-118127380D01*
X139078571Y-118127380D01*
X138602380Y-118127380D02*
X138697619Y-118079761D01*
X138745238Y-118032142D01*
X138792857Y-117936904D01*
X138792857Y-117651190D01*
X138745238Y-117555952D01*
X138697619Y-117508333D01*
X138602380Y-117460714D01*
X138459523Y-117460714D01*
X138364285Y-117508333D01*
X138316666Y-117555952D01*
X138269047Y-117651190D01*
X138269047Y-117936904D01*
X138316666Y-118032142D01*
X138364285Y-118079761D01*
X138459523Y-118127380D01*
X138602380Y-118127380D01*
X137840476Y-118127380D02*
X137840476Y-117460714D01*
X137840476Y-117651190D02*
X137792857Y-117555952D01*
X137745238Y-117508333D01*
X137650000Y-117460714D01*
X137554761Y-117460714D01*
X108575238Y-82267380D02*
X108527619Y-82124523D01*
X108527619Y-81886428D01*
X108575238Y-81791190D01*
X108622857Y-81743571D01*
X108718095Y-81695952D01*
X108813333Y-81695952D01*
X108908571Y-81743571D01*
X108956190Y-81791190D01*
X109003809Y-81886428D01*
X109051428Y-82076904D01*
X109099047Y-82172142D01*
X109146666Y-82219761D01*
X109241904Y-82267380D01*
X109337142Y-82267380D01*
X109432380Y-82219761D01*
X109480000Y-82172142D01*
X109527619Y-82076904D01*
X109527619Y-81838809D01*
X109480000Y-81695952D01*
X109194285Y-81362619D02*
X108527619Y-81124523D01*
X109194285Y-80886428D02*
X108527619Y-81124523D01*
X108289523Y-81219761D01*
X108241904Y-81267380D01*
X108194285Y-81362619D01*
X108575238Y-80553095D02*
X108527619Y-80457857D01*
X108527619Y-80267380D01*
X108575238Y-80172142D01*
X108670476Y-80124523D01*
X108718095Y-80124523D01*
X108813333Y-80172142D01*
X108860952Y-80267380D01*
X108860952Y-80410238D01*
X108908571Y-80505476D01*
X109003809Y-80553095D01*
X109051428Y-80553095D01*
X109146666Y-80505476D01*
X109194285Y-80410238D01*
X109194285Y-80267380D01*
X109146666Y-80172142D01*
X109194285Y-79838809D02*
X109194285Y-79457857D01*
X109527619Y-79695952D02*
X108670476Y-79695952D01*
X108575238Y-79648333D01*
X108527619Y-79553095D01*
X108527619Y-79457857D01*
X108575238Y-78743571D02*
X108527619Y-78838809D01*
X108527619Y-79029285D01*
X108575238Y-79124523D01*
X108670476Y-79172142D01*
X109051428Y-79172142D01*
X109146666Y-79124523D01*
X109194285Y-79029285D01*
X109194285Y-78838809D01*
X109146666Y-78743571D01*
X109051428Y-78695952D01*
X108956190Y-78695952D01*
X108860952Y-79172142D01*
X108527619Y-78267380D02*
X109194285Y-78267380D01*
X109099047Y-78267380D02*
X109146666Y-78219761D01*
X109194285Y-78124523D01*
X109194285Y-77981666D01*
X109146666Y-77886428D01*
X109051428Y-77838809D01*
X108527619Y-77838809D01*
X109051428Y-77838809D02*
X109146666Y-77791190D01*
X109194285Y-77695952D01*
X109194285Y-77553095D01*
X109146666Y-77457857D01*
X109051428Y-77410238D01*
X108527619Y-77410238D01*
X106917619Y-84576904D02*
X107917619Y-84576904D01*
X107917619Y-84195952D01*
X107870000Y-84100714D01*
X107822380Y-84053095D01*
X107727142Y-84005476D01*
X107584285Y-84005476D01*
X107489047Y-84053095D01*
X107441428Y-84100714D01*
X107393809Y-84195952D01*
X107393809Y-84576904D01*
X106917619Y-83434047D02*
X106965238Y-83529285D01*
X107012857Y-83576904D01*
X107108095Y-83624523D01*
X107393809Y-83624523D01*
X107489047Y-83576904D01*
X107536666Y-83529285D01*
X107584285Y-83434047D01*
X107584285Y-83291190D01*
X107536666Y-83195952D01*
X107489047Y-83148333D01*
X107393809Y-83100714D01*
X107108095Y-83100714D01*
X107012857Y-83148333D01*
X106965238Y-83195952D01*
X106917619Y-83291190D01*
X106917619Y-83434047D01*
X107584285Y-82767380D02*
X106917619Y-82576904D01*
X107393809Y-82386428D01*
X106917619Y-82195952D01*
X107584285Y-82005476D01*
X106965238Y-81243571D02*
X106917619Y-81338809D01*
X106917619Y-81529285D01*
X106965238Y-81624523D01*
X107060476Y-81672142D01*
X107441428Y-81672142D01*
X107536666Y-81624523D01*
X107584285Y-81529285D01*
X107584285Y-81338809D01*
X107536666Y-81243571D01*
X107441428Y-81195952D01*
X107346190Y-81195952D01*
X107250952Y-81672142D01*
X106917619Y-80767380D02*
X107584285Y-80767380D01*
X107393809Y-80767380D02*
X107489047Y-80719761D01*
X107536666Y-80672142D01*
X107584285Y-80576904D01*
X107584285Y-80481666D01*
X106965238Y-79434047D02*
X106917619Y-79291190D01*
X106917619Y-79053095D01*
X106965238Y-78957857D01*
X107012857Y-78910238D01*
X107108095Y-78862619D01*
X107203333Y-78862619D01*
X107298571Y-78910238D01*
X107346190Y-78957857D01*
X107393809Y-79053095D01*
X107441428Y-79243571D01*
X107489047Y-79338809D01*
X107536666Y-79386428D01*
X107631904Y-79434047D01*
X107727142Y-79434047D01*
X107822380Y-79386428D01*
X107870000Y-79338809D01*
X107917619Y-79243571D01*
X107917619Y-79005476D01*
X107870000Y-78862619D01*
X107584285Y-78529285D02*
X106917619Y-78338809D01*
X107393809Y-78148333D01*
X106917619Y-77957857D01*
X107584285Y-77767380D01*
X106917619Y-77386428D02*
X107584285Y-77386428D01*
X107917619Y-77386428D02*
X107870000Y-77434047D01*
X107822380Y-77386428D01*
X107870000Y-77338809D01*
X107917619Y-77386428D01*
X107822380Y-77386428D01*
X107584285Y-77053095D02*
X107584285Y-76672142D01*
X107917619Y-76910238D02*
X107060476Y-76910238D01*
X106965238Y-76862619D01*
X106917619Y-76767380D01*
X106917619Y-76672142D01*
X106965238Y-75910238D02*
X106917619Y-76005476D01*
X106917619Y-76195952D01*
X106965238Y-76291190D01*
X107012857Y-76338809D01*
X107108095Y-76386428D01*
X107393809Y-76386428D01*
X107489047Y-76338809D01*
X107536666Y-76291190D01*
X107584285Y-76195952D01*
X107584285Y-76005476D01*
X107536666Y-75910238D01*
X106917619Y-75481666D02*
X107917619Y-75481666D01*
X106917619Y-75053095D02*
X107441428Y-75053095D01*
X107536666Y-75100714D01*
X107584285Y-75195952D01*
X107584285Y-75338809D01*
X107536666Y-75434047D01*
X107489047Y-75481666D01*
X152110714Y-91602380D02*
X152110714Y-90602380D01*
X151777380Y-91316666D01*
X151444047Y-90602380D01*
X151444047Y-91602380D01*
X150539285Y-91602380D02*
X150539285Y-91078571D01*
X150586904Y-90983333D01*
X150682142Y-90935714D01*
X150872619Y-90935714D01*
X150967857Y-90983333D01*
X150539285Y-91554761D02*
X150634523Y-91602380D01*
X150872619Y-91602380D01*
X150967857Y-91554761D01*
X151015476Y-91459523D01*
X151015476Y-91364285D01*
X150967857Y-91269047D01*
X150872619Y-91221428D01*
X150634523Y-91221428D01*
X150539285Y-91173809D01*
X150063095Y-91602380D02*
X150063095Y-90935714D01*
X150063095Y-90602380D02*
X150110714Y-90650000D01*
X150063095Y-90697619D01*
X150015476Y-90650000D01*
X150063095Y-90602380D01*
X150063095Y-90697619D01*
X149586904Y-90935714D02*
X149586904Y-91602380D01*
X149586904Y-91030952D02*
X149539285Y-90983333D01*
X149444047Y-90935714D01*
X149301190Y-90935714D01*
X149205952Y-90983333D01*
X149158333Y-91078571D01*
X149158333Y-91602380D01*
X147586904Y-91078571D02*
X147444047Y-91126190D01*
X147396428Y-91173809D01*
X147348809Y-91269047D01*
X147348809Y-91411904D01*
X147396428Y-91507142D01*
X147444047Y-91554761D01*
X147539285Y-91602380D01*
X147920238Y-91602380D01*
X147920238Y-90602380D01*
X147586904Y-90602380D01*
X147491666Y-90650000D01*
X147444047Y-90697619D01*
X147396428Y-90792857D01*
X147396428Y-90888095D01*
X147444047Y-90983333D01*
X147491666Y-91030952D01*
X147586904Y-91078571D01*
X147920238Y-91078571D01*
X146491666Y-90935714D02*
X146491666Y-91602380D01*
X146920238Y-90935714D02*
X146920238Y-91459523D01*
X146872619Y-91554761D01*
X146777380Y-91602380D01*
X146634523Y-91602380D01*
X146539285Y-91554761D01*
X146491666Y-91507142D01*
X146063095Y-91554761D02*
X145967857Y-91602380D01*
X145777380Y-91602380D01*
X145682142Y-91554761D01*
X145634523Y-91459523D01*
X145634523Y-91411904D01*
X145682142Y-91316666D01*
X145777380Y-91269047D01*
X145920238Y-91269047D01*
X146015476Y-91221428D01*
X146063095Y-91126190D01*
X146063095Y-91078571D01*
X146015476Y-90983333D01*
X145920238Y-90935714D01*
X145777380Y-90935714D01*
X145682142Y-90983333D01*
X144444047Y-91602380D02*
X144444047Y-90602380D01*
X144063095Y-90602380D01*
X143967857Y-90650000D01*
X143920238Y-90697619D01*
X143872619Y-90792857D01*
X143872619Y-90935714D01*
X143920238Y-91030952D01*
X143967857Y-91078571D01*
X144063095Y-91126190D01*
X144444047Y-91126190D01*
X143301190Y-91602380D02*
X143396428Y-91554761D01*
X143444047Y-91507142D01*
X143491666Y-91411904D01*
X143491666Y-91126190D01*
X143444047Y-91030952D01*
X143396428Y-90983333D01*
X143301190Y-90935714D01*
X143158333Y-90935714D01*
X143063095Y-90983333D01*
X143015476Y-91030952D01*
X142967857Y-91126190D01*
X142967857Y-91411904D01*
X143015476Y-91507142D01*
X143063095Y-91554761D01*
X143158333Y-91602380D01*
X143301190Y-91602380D01*
X142634523Y-90935714D02*
X142444047Y-91602380D01*
X142253571Y-91126190D01*
X142063095Y-91602380D01*
X141872619Y-90935714D01*
X141110714Y-91554761D02*
X141205952Y-91602380D01*
X141396428Y-91602380D01*
X141491666Y-91554761D01*
X141539285Y-91459523D01*
X141539285Y-91078571D01*
X141491666Y-90983333D01*
X141396428Y-90935714D01*
X141205952Y-90935714D01*
X141110714Y-90983333D01*
X141063095Y-91078571D01*
X141063095Y-91173809D01*
X141539285Y-91269047D01*
X140634523Y-91602380D02*
X140634523Y-90935714D01*
X140634523Y-91126190D02*
X140586904Y-91030952D01*
X140539285Y-90983333D01*
X140444047Y-90935714D01*
X140348809Y-90935714D01*
X138682142Y-91602380D02*
X139015476Y-91126190D01*
X139253571Y-91602380D02*
X139253571Y-90602380D01*
X138872619Y-90602380D01*
X138777380Y-90650000D01*
X138729761Y-90697619D01*
X138682142Y-90792857D01*
X138682142Y-90935714D01*
X138729761Y-91030952D01*
X138777380Y-91078571D01*
X138872619Y-91126190D01*
X139253571Y-91126190D01*
X137872619Y-91554761D02*
X137967857Y-91602380D01*
X138158333Y-91602380D01*
X138253571Y-91554761D01*
X138301190Y-91459523D01*
X138301190Y-91078571D01*
X138253571Y-90983333D01*
X138158333Y-90935714D01*
X137967857Y-90935714D01*
X137872619Y-90983333D01*
X137825000Y-91078571D01*
X137825000Y-91173809D01*
X138301190Y-91269047D01*
X136967857Y-90935714D02*
X136967857Y-91745238D01*
X137015476Y-91840476D01*
X137063095Y-91888095D01*
X137158333Y-91935714D01*
X137301190Y-91935714D01*
X137396428Y-91888095D01*
X136967857Y-91554761D02*
X137063095Y-91602380D01*
X137253571Y-91602380D01*
X137348809Y-91554761D01*
X137396428Y-91507142D01*
X137444047Y-91411904D01*
X137444047Y-91126190D01*
X137396428Y-91030952D01*
X137348809Y-90983333D01*
X137253571Y-90935714D01*
X137063095Y-90935714D01*
X136967857Y-90983333D01*
X136063095Y-90935714D02*
X136063095Y-91602380D01*
X136491666Y-90935714D02*
X136491666Y-91459523D01*
X136444047Y-91554761D01*
X136348809Y-91602380D01*
X136205952Y-91602380D01*
X136110714Y-91554761D01*
X136063095Y-91507142D01*
X135444047Y-91602380D02*
X135539285Y-91554761D01*
X135586904Y-91459523D01*
X135586904Y-90602380D01*
X134634523Y-91602380D02*
X134634523Y-91078571D01*
X134682142Y-90983333D01*
X134777380Y-90935714D01*
X134967857Y-90935714D01*
X135063095Y-90983333D01*
X134634523Y-91554761D02*
X134729761Y-91602380D01*
X134967857Y-91602380D01*
X135063095Y-91554761D01*
X135110714Y-91459523D01*
X135110714Y-91364285D01*
X135063095Y-91269047D01*
X134967857Y-91221428D01*
X134729761Y-91221428D01*
X134634523Y-91173809D01*
X134301190Y-90935714D02*
X133920238Y-90935714D01*
X134158333Y-90602380D02*
X134158333Y-91459523D01*
X134110714Y-91554761D01*
X134015476Y-91602380D01*
X133920238Y-91602380D01*
X133444047Y-91602380D02*
X133539285Y-91554761D01*
X133586904Y-91507142D01*
X133634523Y-91411904D01*
X133634523Y-91126190D01*
X133586904Y-91030952D01*
X133539285Y-90983333D01*
X133444047Y-90935714D01*
X133301190Y-90935714D01*
X133205952Y-90983333D01*
X133158333Y-91030952D01*
X133110714Y-91126190D01*
X133110714Y-91411904D01*
X133158333Y-91507142D01*
X133205952Y-91554761D01*
X133301190Y-91602380D01*
X133444047Y-91602380D01*
X132682142Y-91602380D02*
X132682142Y-90935714D01*
X132682142Y-91126190D02*
X132634523Y-91030952D01*
X132586904Y-90983333D01*
X132491666Y-90935714D01*
X132396428Y-90935714D01*
X101833868Y-95655297D02*
X101833868Y-94655297D01*
X101595773Y-94655297D01*
X101452916Y-94702917D01*
X101357678Y-94798155D01*
X101310059Y-94893393D01*
X101262440Y-95083869D01*
X101262440Y-95226726D01*
X101310059Y-95417202D01*
X101357678Y-95512440D01*
X101452916Y-95607678D01*
X101595773Y-95655297D01*
X101833868Y-95655297D01*
X100310059Y-95655297D02*
X100881487Y-95655297D01*
X100595773Y-95655297D02*
X100595773Y-94655297D01*
X100691011Y-94798155D01*
X100786249Y-94893393D01*
X100881487Y-94941012D01*
X99452916Y-94988631D02*
X99452916Y-95655297D01*
X99691011Y-94607678D02*
X99929106Y-95321964D01*
X99310059Y-95321964D01*
X114814178Y-93361338D02*
X114814178Y-94170862D01*
X114766559Y-94266100D01*
X114718940Y-94313719D01*
X114623702Y-94361338D01*
X114433225Y-94361338D01*
X114337987Y-94313719D01*
X114290368Y-94266100D01*
X114242749Y-94170862D01*
X114242749Y-93361338D01*
X113861797Y-93361338D02*
X113242749Y-93361338D01*
X113576083Y-93742291D01*
X113433225Y-93742291D01*
X113337987Y-93789910D01*
X113290368Y-93837529D01*
X113242749Y-93932767D01*
X113242749Y-94170862D01*
X113290368Y-94266100D01*
X113337987Y-94313719D01*
X113433225Y-94361338D01*
X113718940Y-94361338D01*
X113814178Y-94313719D01*
X113861797Y-94266100D01*
X112290368Y-94361338D02*
X112861797Y-94361338D01*
X112576083Y-94361338D02*
X112576083Y-93361338D01*
X112671321Y-93504196D01*
X112766559Y-93599434D01*
X112861797Y-93647053D01*
X150582142Y-83282142D02*
X150629761Y-83234523D01*
X150677380Y-83091666D01*
X150677380Y-82996428D01*
X150629761Y-82853571D01*
X150534523Y-82758333D01*
X150439285Y-82710714D01*
X150248809Y-82663095D01*
X150105952Y-82663095D01*
X149915476Y-82710714D01*
X149820238Y-82758333D01*
X149725000Y-82853571D01*
X149677380Y-82996428D01*
X149677380Y-83091666D01*
X149725000Y-83234523D01*
X149772619Y-83282142D01*
X149677380Y-83615476D02*
X149677380Y-84234523D01*
X150058333Y-83901190D01*
X150058333Y-84044047D01*
X150105952Y-84139285D01*
X150153571Y-84186904D01*
X150248809Y-84234523D01*
X150486904Y-84234523D01*
X150582142Y-84186904D01*
X150629761Y-84139285D01*
X150677380Y-84044047D01*
X150677380Y-83758333D01*
X150629761Y-83663095D01*
X150582142Y-83615476D01*
X149772619Y-84615476D02*
X149725000Y-84663095D01*
X149677380Y-84758333D01*
X149677380Y-84996428D01*
X149725000Y-85091666D01*
X149772619Y-85139285D01*
X149867857Y-85186904D01*
X149963095Y-85186904D01*
X150105952Y-85139285D01*
X150677380Y-84567857D01*
X150677380Y-85186904D01*
X151332142Y-71882142D02*
X151379761Y-71834523D01*
X151427380Y-71691666D01*
X151427380Y-71596428D01*
X151379761Y-71453571D01*
X151284523Y-71358333D01*
X151189285Y-71310714D01*
X150998809Y-71263095D01*
X150855952Y-71263095D01*
X150665476Y-71310714D01*
X150570238Y-71358333D01*
X150475000Y-71453571D01*
X150427380Y-71596428D01*
X150427380Y-71691666D01*
X150475000Y-71834523D01*
X150522619Y-71882142D01*
X150427380Y-72215476D02*
X150427380Y-72834523D01*
X150808333Y-72501190D01*
X150808333Y-72644047D01*
X150855952Y-72739285D01*
X150903571Y-72786904D01*
X150998809Y-72834523D01*
X151236904Y-72834523D01*
X151332142Y-72786904D01*
X151379761Y-72739285D01*
X151427380Y-72644047D01*
X151427380Y-72358333D01*
X151379761Y-72263095D01*
X151332142Y-72215476D01*
X150427380Y-73167857D02*
X150427380Y-73786904D01*
X150808333Y-73453571D01*
X150808333Y-73596428D01*
X150855952Y-73691666D01*
X150903571Y-73739285D01*
X150998809Y-73786904D01*
X151236904Y-73786904D01*
X151332142Y-73739285D01*
X151379761Y-73691666D01*
X151427380Y-73596428D01*
X151427380Y-73310714D01*
X151379761Y-73215476D01*
X151332142Y-73167857D01*
X114075857Y-80588142D02*
X114123476Y-80635761D01*
X114266333Y-80683380D01*
X114361571Y-80683380D01*
X114504428Y-80635761D01*
X114599666Y-80540523D01*
X114647285Y-80445285D01*
X114694904Y-80254809D01*
X114694904Y-80111952D01*
X114647285Y-79921476D01*
X114599666Y-79826238D01*
X114504428Y-79731000D01*
X114361571Y-79683380D01*
X114266333Y-79683380D01*
X114123476Y-79731000D01*
X114075857Y-79778619D01*
X113742523Y-79683380D02*
X113123476Y-79683380D01*
X113456809Y-80064333D01*
X113313952Y-80064333D01*
X113218714Y-80111952D01*
X113171095Y-80159571D01*
X113123476Y-80254809D01*
X113123476Y-80492904D01*
X113171095Y-80588142D01*
X113218714Y-80635761D01*
X113313952Y-80683380D01*
X113599666Y-80683380D01*
X113694904Y-80635761D01*
X113742523Y-80588142D01*
X112218714Y-79683380D02*
X112694904Y-79683380D01*
X112742523Y-80159571D01*
X112694904Y-80111952D01*
X112599666Y-80064333D01*
X112361571Y-80064333D01*
X112266333Y-80111952D01*
X112218714Y-80159571D01*
X112171095Y-80254809D01*
X112171095Y-80492904D01*
X112218714Y-80588142D01*
X112266333Y-80635761D01*
X112361571Y-80683380D01*
X112599666Y-80683380D01*
X112694904Y-80635761D01*
X112742523Y-80588142D01*
X117631857Y-80588142D02*
X117679476Y-80635761D01*
X117822333Y-80683380D01*
X117917571Y-80683380D01*
X118060428Y-80635761D01*
X118155666Y-80540523D01*
X118203285Y-80445285D01*
X118250904Y-80254809D01*
X118250904Y-80111952D01*
X118203285Y-79921476D01*
X118155666Y-79826238D01*
X118060428Y-79731000D01*
X117917571Y-79683380D01*
X117822333Y-79683380D01*
X117679476Y-79731000D01*
X117631857Y-79778619D01*
X117298523Y-79683380D02*
X116679476Y-79683380D01*
X117012809Y-80064333D01*
X116869952Y-80064333D01*
X116774714Y-80111952D01*
X116727095Y-80159571D01*
X116679476Y-80254809D01*
X116679476Y-80492904D01*
X116727095Y-80588142D01*
X116774714Y-80635761D01*
X116869952Y-80683380D01*
X117155666Y-80683380D01*
X117250904Y-80635761D01*
X117298523Y-80588142D01*
X115822333Y-79683380D02*
X116012809Y-79683380D01*
X116108047Y-79731000D01*
X116155666Y-79778619D01*
X116250904Y-79921476D01*
X116298523Y-80111952D01*
X116298523Y-80492904D01*
X116250904Y-80588142D01*
X116203285Y-80635761D01*
X116108047Y-80683380D01*
X115917571Y-80683380D01*
X115822333Y-80635761D01*
X115774714Y-80588142D01*
X115727095Y-80492904D01*
X115727095Y-80254809D01*
X115774714Y-80159571D01*
X115822333Y-80111952D01*
X115917571Y-80064333D01*
X116108047Y-80064333D01*
X116203285Y-80111952D01*
X116250904Y-80159571D01*
X116298523Y-80254809D01*
X114075857Y-71698142D02*
X114123476Y-71745761D01*
X114266333Y-71793380D01*
X114361571Y-71793380D01*
X114504428Y-71745761D01*
X114599666Y-71650523D01*
X114647285Y-71555285D01*
X114694904Y-71364809D01*
X114694904Y-71221952D01*
X114647285Y-71031476D01*
X114599666Y-70936238D01*
X114504428Y-70841000D01*
X114361571Y-70793380D01*
X114266333Y-70793380D01*
X114123476Y-70841000D01*
X114075857Y-70888619D01*
X113742523Y-70793380D02*
X113123476Y-70793380D01*
X113456809Y-71174333D01*
X113313952Y-71174333D01*
X113218714Y-71221952D01*
X113171095Y-71269571D01*
X113123476Y-71364809D01*
X113123476Y-71602904D01*
X113171095Y-71698142D01*
X113218714Y-71745761D01*
X113313952Y-71793380D01*
X113599666Y-71793380D01*
X113694904Y-71745761D01*
X113742523Y-71698142D01*
X112790142Y-70793380D02*
X112123476Y-70793380D01*
X112552047Y-71793380D01*
X117631857Y-71698142D02*
X117679476Y-71745761D01*
X117822333Y-71793380D01*
X117917571Y-71793380D01*
X118060428Y-71745761D01*
X118155666Y-71650523D01*
X118203285Y-71555285D01*
X118250904Y-71364809D01*
X118250904Y-71221952D01*
X118203285Y-71031476D01*
X118155666Y-70936238D01*
X118060428Y-70841000D01*
X117917571Y-70793380D01*
X117822333Y-70793380D01*
X117679476Y-70841000D01*
X117631857Y-70888619D01*
X117298523Y-70793380D02*
X116679476Y-70793380D01*
X117012809Y-71174333D01*
X116869952Y-71174333D01*
X116774714Y-71221952D01*
X116727095Y-71269571D01*
X116679476Y-71364809D01*
X116679476Y-71602904D01*
X116727095Y-71698142D01*
X116774714Y-71745761D01*
X116869952Y-71793380D01*
X117155666Y-71793380D01*
X117250904Y-71745761D01*
X117298523Y-71698142D01*
X116108047Y-71221952D02*
X116203285Y-71174333D01*
X116250904Y-71126714D01*
X116298523Y-71031476D01*
X116298523Y-70983857D01*
X116250904Y-70888619D01*
X116203285Y-70841000D01*
X116108047Y-70793380D01*
X115917571Y-70793380D01*
X115822333Y-70841000D01*
X115774714Y-70888619D01*
X115727095Y-70983857D01*
X115727095Y-71031476D01*
X115774714Y-71126714D01*
X115822333Y-71174333D01*
X115917571Y-71221952D01*
X116108047Y-71221952D01*
X116203285Y-71269571D01*
X116250904Y-71317190D01*
X116298523Y-71412428D01*
X116298523Y-71602904D01*
X116250904Y-71698142D01*
X116203285Y-71745761D01*
X116108047Y-71793380D01*
X115917571Y-71793380D01*
X115822333Y-71745761D01*
X115774714Y-71698142D01*
X115727095Y-71602904D01*
X115727095Y-71412428D01*
X115774714Y-71317190D01*
X115822333Y-71269571D01*
X115917571Y-71221952D01*
X112043940Y-104641100D02*
X112091559Y-104688719D01*
X112234416Y-104736338D01*
X112329654Y-104736338D01*
X112472511Y-104688719D01*
X112567749Y-104593481D01*
X112615368Y-104498243D01*
X112662987Y-104307767D01*
X112662987Y-104164910D01*
X112615368Y-103974434D01*
X112567749Y-103879196D01*
X112472511Y-103783958D01*
X112329654Y-103736338D01*
X112234416Y-103736338D01*
X112091559Y-103783958D01*
X112043940Y-103831577D01*
X111186797Y-104069672D02*
X111186797Y-104736338D01*
X111424892Y-103688719D02*
X111662987Y-104403005D01*
X111043940Y-104403005D01*
X110234416Y-103736338D02*
X110424892Y-103736338D01*
X110520130Y-103783958D01*
X110567749Y-103831577D01*
X110662987Y-103974434D01*
X110710606Y-104164910D01*
X110710606Y-104545862D01*
X110662987Y-104641100D01*
X110615368Y-104688719D01*
X110520130Y-104736338D01*
X110329654Y-104736338D01*
X110234416Y-104688719D01*
X110186797Y-104641100D01*
X110139178Y-104545862D01*
X110139178Y-104307767D01*
X110186797Y-104212529D01*
X110234416Y-104164910D01*
X110329654Y-104117291D01*
X110520130Y-104117291D01*
X110615368Y-104164910D01*
X110662987Y-104212529D01*
X110710606Y-104307767D01*
X112068940Y-92138100D02*
X112116559Y-92185719D01*
X112259416Y-92233338D01*
X112354654Y-92233338D01*
X112497511Y-92185719D01*
X112592749Y-92090481D01*
X112640368Y-91995243D01*
X112687987Y-91804767D01*
X112687987Y-91661910D01*
X112640368Y-91471434D01*
X112592749Y-91376196D01*
X112497511Y-91280958D01*
X112354654Y-91233338D01*
X112259416Y-91233338D01*
X112116559Y-91280958D01*
X112068940Y-91328577D01*
X111211797Y-91566672D02*
X111211797Y-92233338D01*
X111449892Y-91185719D02*
X111687987Y-91900005D01*
X111068940Y-91900005D01*
X110545130Y-91661910D02*
X110640368Y-91614291D01*
X110687987Y-91566672D01*
X110735606Y-91471434D01*
X110735606Y-91423815D01*
X110687987Y-91328577D01*
X110640368Y-91280958D01*
X110545130Y-91233338D01*
X110354654Y-91233338D01*
X110259416Y-91280958D01*
X110211797Y-91328577D01*
X110164178Y-91423815D01*
X110164178Y-91471434D01*
X110211797Y-91566672D01*
X110259416Y-91614291D01*
X110354654Y-91661910D01*
X110545130Y-91661910D01*
X110640368Y-91709529D01*
X110687987Y-91757148D01*
X110735606Y-91852386D01*
X110735606Y-92042862D01*
X110687987Y-92138100D01*
X110640368Y-92185719D01*
X110545130Y-92233338D01*
X110354654Y-92233338D01*
X110259416Y-92185719D01*
X110211797Y-92138100D01*
X110164178Y-92042862D01*
X110164178Y-91852386D01*
X110211797Y-91757148D01*
X110259416Y-91709529D01*
X110354654Y-91661910D01*
X101806568Y-89466337D02*
X101806568Y-88466337D01*
X101568473Y-88466337D01*
X101425616Y-88513957D01*
X101330378Y-88609195D01*
X101282759Y-88704433D01*
X101235140Y-88894909D01*
X101235140Y-89037766D01*
X101282759Y-89228242D01*
X101330378Y-89323480D01*
X101425616Y-89418718D01*
X101568473Y-89466337D01*
X101806568Y-89466337D01*
X100282759Y-89466337D02*
X100854187Y-89466337D01*
X100568473Y-89466337D02*
X100568473Y-88466337D01*
X100663711Y-88609195D01*
X100758949Y-88704433D01*
X100854187Y-88752052D01*
X99949425Y-88466337D02*
X99330378Y-88466337D01*
X99663711Y-88847290D01*
X99520854Y-88847290D01*
X99425616Y-88894909D01*
X99377997Y-88942528D01*
X99330378Y-89037766D01*
X99330378Y-89275861D01*
X99377997Y-89371099D01*
X99425616Y-89418718D01*
X99520854Y-89466337D01*
X99806568Y-89466337D01*
X99901806Y-89418718D01*
X99949425Y-89371099D01*
X101808868Y-99348297D02*
X101808868Y-98348297D01*
X101570773Y-98348297D01*
X101427916Y-98395917D01*
X101332678Y-98491155D01*
X101285059Y-98586393D01*
X101237440Y-98776869D01*
X101237440Y-98919726D01*
X101285059Y-99110202D01*
X101332678Y-99205440D01*
X101427916Y-99300678D01*
X101570773Y-99348297D01*
X101808868Y-99348297D01*
X100285059Y-99348297D02*
X100856487Y-99348297D01*
X100570773Y-99348297D02*
X100570773Y-98348297D01*
X100666011Y-98491155D01*
X100761249Y-98586393D01*
X100856487Y-98634012D01*
X99380297Y-98348297D02*
X99856487Y-98348297D01*
X99904106Y-98824488D01*
X99856487Y-98776869D01*
X99761249Y-98729250D01*
X99523154Y-98729250D01*
X99427916Y-98776869D01*
X99380297Y-98824488D01*
X99332678Y-98919726D01*
X99332678Y-99157821D01*
X99380297Y-99253059D01*
X99427916Y-99300678D01*
X99523154Y-99348297D01*
X99761249Y-99348297D01*
X99856487Y-99300678D01*
X99904106Y-99253059D01*
X101808868Y-105520297D02*
X101808868Y-104520297D01*
X101570773Y-104520297D01*
X101427916Y-104567917D01*
X101332678Y-104663155D01*
X101285059Y-104758393D01*
X101237440Y-104948869D01*
X101237440Y-105091726D01*
X101285059Y-105282202D01*
X101332678Y-105377440D01*
X101427916Y-105472678D01*
X101570773Y-105520297D01*
X101808868Y-105520297D01*
X100285059Y-105520297D02*
X100856487Y-105520297D01*
X100570773Y-105520297D02*
X100570773Y-104520297D01*
X100666011Y-104663155D01*
X100761249Y-104758393D01*
X100856487Y-104806012D01*
X99427916Y-104520297D02*
X99618392Y-104520297D01*
X99713630Y-104567917D01*
X99761249Y-104615536D01*
X99856487Y-104758393D01*
X99904106Y-104948869D01*
X99904106Y-105329821D01*
X99856487Y-105425059D01*
X99808868Y-105472678D01*
X99713630Y-105520297D01*
X99523154Y-105520297D01*
X99427916Y-105472678D01*
X99380297Y-105425059D01*
X99332678Y-105329821D01*
X99332678Y-105091726D01*
X99380297Y-104996488D01*
X99427916Y-104948869D01*
X99523154Y-104901250D01*
X99713630Y-104901250D01*
X99808868Y-104948869D01*
X99856487Y-104996488D01*
X99904106Y-105091726D01*
X106053463Y-92055472D02*
X105053463Y-92055472D01*
X105053463Y-92293567D01*
X105101083Y-92436424D01*
X105196321Y-92531662D01*
X105291559Y-92579281D01*
X105482035Y-92626900D01*
X105624892Y-92626900D01*
X105815368Y-92579281D01*
X105910606Y-92531662D01*
X106005844Y-92436424D01*
X106053463Y-92293567D01*
X106053463Y-92055472D01*
X106053463Y-93579281D02*
X106053463Y-93007853D01*
X106053463Y-93293567D02*
X105053463Y-93293567D01*
X105196321Y-93198329D01*
X105291559Y-93103091D01*
X105339178Y-93007853D01*
X105053463Y-93912615D02*
X105053463Y-94579281D01*
X106053463Y-94150710D01*
X108078463Y-92052172D02*
X107078463Y-92052172D01*
X107078463Y-92290267D01*
X107126083Y-92433124D01*
X107221321Y-92528362D01*
X107316559Y-92575981D01*
X107507035Y-92623600D01*
X107649892Y-92623600D01*
X107840368Y-92575981D01*
X107935606Y-92528362D01*
X108030844Y-92433124D01*
X108078463Y-92290267D01*
X108078463Y-92052172D01*
X108078463Y-93575981D02*
X108078463Y-93004553D01*
X108078463Y-93290267D02*
X107078463Y-93290267D01*
X107221321Y-93195029D01*
X107316559Y-93099791D01*
X107364178Y-93004553D01*
X107507035Y-94147410D02*
X107459416Y-94052172D01*
X107411797Y-94004553D01*
X107316559Y-93956934D01*
X107268940Y-93956934D01*
X107173702Y-94004553D01*
X107126083Y-94052172D01*
X107078463Y-94147410D01*
X107078463Y-94337886D01*
X107126083Y-94433124D01*
X107173702Y-94480743D01*
X107268940Y-94528362D01*
X107316559Y-94528362D01*
X107411797Y-94480743D01*
X107459416Y-94433124D01*
X107507035Y-94337886D01*
X107507035Y-94147410D01*
X107554654Y-94052172D01*
X107602273Y-94004553D01*
X107697511Y-93956934D01*
X107887987Y-93956934D01*
X107983225Y-94004553D01*
X108030844Y-94052172D01*
X108078463Y-94147410D01*
X108078463Y-94337886D01*
X108030844Y-94433124D01*
X107983225Y-94480743D01*
X107887987Y-94528362D01*
X107697511Y-94528362D01*
X107602273Y-94480743D01*
X107554654Y-94433124D01*
X107507035Y-94337886D01*
X103408580Y-108428314D02*
X102408580Y-108428314D01*
X102408580Y-108666409D01*
X102456200Y-108809266D01*
X102551438Y-108904504D01*
X102646676Y-108952123D01*
X102837152Y-108999742D01*
X102980009Y-108999742D01*
X103170485Y-108952123D01*
X103265723Y-108904504D01*
X103360961Y-108809266D01*
X103408580Y-108666409D01*
X103408580Y-108428314D01*
X103408580Y-109952123D02*
X103408580Y-109380695D01*
X103408580Y-109666409D02*
X102408580Y-109666409D01*
X102551438Y-109571171D01*
X102646676Y-109475933D01*
X102694295Y-109380695D01*
X103408580Y-110428314D02*
X103408580Y-110618790D01*
X103360961Y-110714028D01*
X103313342Y-110761647D01*
X103170485Y-110856885D01*
X102980009Y-110904504D01*
X102599057Y-110904504D01*
X102503819Y-110856885D01*
X102456200Y-110809266D01*
X102408580Y-110714028D01*
X102408580Y-110523552D01*
X102456200Y-110428314D01*
X102503819Y-110380695D01*
X102599057Y-110333076D01*
X102837152Y-110333076D01*
X102932390Y-110380695D01*
X102980009Y-110428314D01*
X103027628Y-110523552D01*
X103027628Y-110714028D01*
X102980009Y-110809266D01*
X102932390Y-110856885D01*
X102837152Y-110904504D01*
X150174380Y-88958333D02*
X150174380Y-88482142D01*
X149174380Y-88482142D01*
X149269619Y-89244047D02*
X149222000Y-89291666D01*
X149174380Y-89386904D01*
X149174380Y-89625000D01*
X149222000Y-89720238D01*
X149269619Y-89767857D01*
X149364857Y-89815476D01*
X149460095Y-89815476D01*
X149602952Y-89767857D01*
X150174380Y-89196428D01*
X150174380Y-89815476D01*
X118813463Y-102453600D02*
X118337273Y-102120267D01*
X118813463Y-101882172D02*
X117813463Y-101882172D01*
X117813463Y-102263124D01*
X117861083Y-102358362D01*
X117908702Y-102405981D01*
X118003940Y-102453600D01*
X118146797Y-102453600D01*
X118242035Y-102405981D01*
X118289654Y-102358362D01*
X118337273Y-102263124D01*
X118337273Y-101882172D01*
X117813463Y-103358362D02*
X117813463Y-102882172D01*
X118289654Y-102834553D01*
X118242035Y-102882172D01*
X118194416Y-102977410D01*
X118194416Y-103215505D01*
X118242035Y-103310743D01*
X118289654Y-103358362D01*
X118384892Y-103405981D01*
X118622987Y-103405981D01*
X118718225Y-103358362D01*
X118765844Y-103310743D01*
X118813463Y-103215505D01*
X118813463Y-102977410D01*
X118765844Y-102882172D01*
X118718225Y-102834553D01*
X117813463Y-104025029D02*
X117813463Y-104120267D01*
X117861083Y-104215505D01*
X117908702Y-104263124D01*
X118003940Y-104310743D01*
X118194416Y-104358362D01*
X118432511Y-104358362D01*
X118622987Y-104310743D01*
X118718225Y-104263124D01*
X118765844Y-104215505D01*
X118813463Y-104120267D01*
X118813463Y-104025029D01*
X118765844Y-103929791D01*
X118718225Y-103882172D01*
X118622987Y-103834553D01*
X118432511Y-103786934D01*
X118194416Y-103786934D01*
X118003940Y-103834553D01*
X117908702Y-103882172D01*
X117861083Y-103929791D01*
X117813463Y-104025029D01*
X115256440Y-102841338D02*
X115589773Y-102365148D01*
X115827868Y-102841338D02*
X115827868Y-101841338D01*
X115446916Y-101841338D01*
X115351678Y-101888958D01*
X115304059Y-101936577D01*
X115256440Y-102031815D01*
X115256440Y-102174672D01*
X115304059Y-102269910D01*
X115351678Y-102317529D01*
X115446916Y-102365148D01*
X115827868Y-102365148D01*
X114351678Y-101841338D02*
X114827868Y-101841338D01*
X114875487Y-102317529D01*
X114827868Y-102269910D01*
X114732630Y-102222291D01*
X114494535Y-102222291D01*
X114399297Y-102269910D01*
X114351678Y-102317529D01*
X114304059Y-102412767D01*
X114304059Y-102650862D01*
X114351678Y-102746100D01*
X114399297Y-102793719D01*
X114494535Y-102841338D01*
X114732630Y-102841338D01*
X114827868Y-102793719D01*
X114875487Y-102746100D01*
X113351678Y-102841338D02*
X113923106Y-102841338D01*
X113637392Y-102841338D02*
X113637392Y-101841338D01*
X113732630Y-101984196D01*
X113827868Y-102079434D01*
X113923106Y-102127053D01*
X119128463Y-91406100D02*
X118652273Y-91072767D01*
X119128463Y-90834672D02*
X118128463Y-90834672D01*
X118128463Y-91215624D01*
X118176083Y-91310862D01*
X118223702Y-91358481D01*
X118318940Y-91406100D01*
X118461797Y-91406100D01*
X118557035Y-91358481D01*
X118604654Y-91310862D01*
X118652273Y-91215624D01*
X118652273Y-90834672D01*
X118128463Y-92310862D02*
X118128463Y-91834672D01*
X118604654Y-91787053D01*
X118557035Y-91834672D01*
X118509416Y-91929910D01*
X118509416Y-92168005D01*
X118557035Y-92263243D01*
X118604654Y-92310862D01*
X118699892Y-92358481D01*
X118937987Y-92358481D01*
X119033225Y-92310862D01*
X119080844Y-92263243D01*
X119128463Y-92168005D01*
X119128463Y-91929910D01*
X119080844Y-91834672D01*
X119033225Y-91787053D01*
X118223702Y-92739434D02*
X118176083Y-92787053D01*
X118128463Y-92882291D01*
X118128463Y-93120386D01*
X118176083Y-93215624D01*
X118223702Y-93263243D01*
X118318940Y-93310862D01*
X118414178Y-93310862D01*
X118557035Y-93263243D01*
X119128463Y-92691815D01*
X119128463Y-93310862D01*
X105950923Y-102801020D02*
X105474733Y-102467687D01*
X105950923Y-102229592D02*
X104950923Y-102229592D01*
X104950923Y-102610544D01*
X104998543Y-102705782D01*
X105046162Y-102753401D01*
X105141400Y-102801020D01*
X105284257Y-102801020D01*
X105379495Y-102753401D01*
X105427114Y-102705782D01*
X105474733Y-102610544D01*
X105474733Y-102229592D01*
X104950923Y-103705782D02*
X104950923Y-103229592D01*
X105427114Y-103181973D01*
X105379495Y-103229592D01*
X105331876Y-103324830D01*
X105331876Y-103562925D01*
X105379495Y-103658163D01*
X105427114Y-103705782D01*
X105522352Y-103753401D01*
X105760447Y-103753401D01*
X105855685Y-103705782D01*
X105903304Y-103658163D01*
X105950923Y-103562925D01*
X105950923Y-103324830D01*
X105903304Y-103229592D01*
X105855685Y-103181973D01*
X104950923Y-104658163D02*
X104950923Y-104181973D01*
X105427114Y-104134354D01*
X105379495Y-104181973D01*
X105331876Y-104277211D01*
X105331876Y-104515306D01*
X105379495Y-104610544D01*
X105427114Y-104658163D01*
X105522352Y-104705782D01*
X105760447Y-104705782D01*
X105855685Y-104658163D01*
X105903304Y-104610544D01*
X105950923Y-104515306D01*
X105950923Y-104277211D01*
X105903304Y-104181973D01*
X105855685Y-104134354D01*
X108000303Y-102598600D02*
X107524113Y-102265267D01*
X108000303Y-102027172D02*
X107000303Y-102027172D01*
X107000303Y-102408124D01*
X107047923Y-102503362D01*
X107095542Y-102550981D01*
X107190780Y-102598600D01*
X107333637Y-102598600D01*
X107428875Y-102550981D01*
X107476494Y-102503362D01*
X107524113Y-102408124D01*
X107524113Y-102027172D01*
X107000303Y-103503362D02*
X107000303Y-103027172D01*
X107476494Y-102979553D01*
X107428875Y-103027172D01*
X107381256Y-103122410D01*
X107381256Y-103360505D01*
X107428875Y-103455743D01*
X107476494Y-103503362D01*
X107571732Y-103550981D01*
X107809827Y-103550981D01*
X107905065Y-103503362D01*
X107952684Y-103455743D01*
X108000303Y-103360505D01*
X108000303Y-103122410D01*
X107952684Y-103027172D01*
X107905065Y-102979553D01*
X107000303Y-104408124D02*
X107000303Y-104217648D01*
X107047923Y-104122410D01*
X107095542Y-104074791D01*
X107238399Y-103979553D01*
X107428875Y-103931934D01*
X107809827Y-103931934D01*
X107905065Y-103979553D01*
X107952684Y-104027172D01*
X108000303Y-104122410D01*
X108000303Y-104312886D01*
X107952684Y-104408124D01*
X107905065Y-104455743D01*
X107809827Y-104503362D01*
X107571732Y-104503362D01*
X107476494Y-104455743D01*
X107428875Y-104408124D01*
X107381256Y-104312886D01*
X107381256Y-104122410D01*
X107428875Y-104027172D01*
X107476494Y-103979553D01*
X107571732Y-103931934D01*
X144227380Y-80886904D02*
X145036904Y-80886904D01*
X145132142Y-80934523D01*
X145179761Y-80982142D01*
X145227380Y-81077380D01*
X145227380Y-81267857D01*
X145179761Y-81363095D01*
X145132142Y-81410714D01*
X145036904Y-81458333D01*
X144227380Y-81458333D01*
X144322619Y-81886904D02*
X144275000Y-81934523D01*
X144227380Y-82029761D01*
X144227380Y-82267857D01*
X144275000Y-82363095D01*
X144322619Y-82410714D01*
X144417857Y-82458333D01*
X144513095Y-82458333D01*
X144655952Y-82410714D01*
X145227380Y-81839285D01*
X145227380Y-82458333D01*
X144227380Y-82791666D02*
X144227380Y-83410714D01*
X144608333Y-83077380D01*
X144608333Y-83220238D01*
X144655952Y-83315476D01*
X144703571Y-83363095D01*
X144798809Y-83410714D01*
X145036904Y-83410714D01*
X145132142Y-83363095D01*
X145179761Y-83315476D01*
X145227380Y-83220238D01*
X145227380Y-82934523D01*
X145179761Y-82839285D01*
X145132142Y-82791666D01*
X116195095Y-88671380D02*
X116195095Y-89480904D01*
X116147476Y-89576142D01*
X116099857Y-89623761D01*
X116004619Y-89671380D01*
X115814142Y-89671380D01*
X115718904Y-89623761D01*
X115671285Y-89576142D01*
X115623666Y-89480904D01*
X115623666Y-88671380D01*
X115195095Y-88766619D02*
X115147476Y-88719000D01*
X115052238Y-88671380D01*
X114814142Y-88671380D01*
X114718904Y-88719000D01*
X114671285Y-88766619D01*
X114623666Y-88861857D01*
X114623666Y-88957095D01*
X114671285Y-89099952D01*
X115242714Y-89671380D01*
X114623666Y-89671380D01*
X113766523Y-89004714D02*
X113766523Y-89671380D01*
X114004619Y-88623761D02*
X114242714Y-89338047D01*
X113623666Y-89338047D01*
X116213095Y-79867380D02*
X116213095Y-80676904D01*
X116165476Y-80772142D01*
X116117857Y-80819761D01*
X116022619Y-80867380D01*
X115832142Y-80867380D01*
X115736904Y-80819761D01*
X115689285Y-80772142D01*
X115641666Y-80676904D01*
X115641666Y-79867380D01*
X115213095Y-79962619D02*
X115165476Y-79915000D01*
X115070238Y-79867380D01*
X114832142Y-79867380D01*
X114736904Y-79915000D01*
X114689285Y-79962619D01*
X114641666Y-80057857D01*
X114641666Y-80153095D01*
X114689285Y-80295952D01*
X115260714Y-80867380D01*
X114641666Y-80867380D01*
X113736904Y-79867380D02*
X114213095Y-79867380D01*
X114260714Y-80343571D01*
X114213095Y-80295952D01*
X114117857Y-80248333D01*
X113879761Y-80248333D01*
X113784523Y-80295952D01*
X113736904Y-80343571D01*
X113689285Y-80438809D01*
X113689285Y-80676904D01*
X113736904Y-80772142D01*
X113784523Y-80819761D01*
X113879761Y-80867380D01*
X114117857Y-80867380D01*
X114213095Y-80819761D01*
X114260714Y-80772142D01*
X136677857Y-78965142D02*
X136725476Y-79012761D01*
X136868333Y-79060380D01*
X136963571Y-79060380D01*
X137106428Y-79012761D01*
X137201666Y-78917523D01*
X137249285Y-78822285D01*
X137296904Y-78631809D01*
X137296904Y-78488952D01*
X137249285Y-78298476D01*
X137201666Y-78203238D01*
X137106428Y-78108000D01*
X136963571Y-78060380D01*
X136868333Y-78060380D01*
X136725476Y-78108000D01*
X136677857Y-78155619D01*
X136296904Y-78155619D02*
X136249285Y-78108000D01*
X136154047Y-78060380D01*
X135915952Y-78060380D01*
X135820714Y-78108000D01*
X135773095Y-78155619D01*
X135725476Y-78250857D01*
X135725476Y-78346095D01*
X135773095Y-78488952D01*
X136344523Y-79060380D01*
X135725476Y-79060380D01*
X134773095Y-79060380D02*
X135344523Y-79060380D01*
X135058809Y-79060380D02*
X135058809Y-78060380D01*
X135154047Y-78203238D01*
X135249285Y-78298476D01*
X135344523Y-78346095D01*
X157617857Y-72082142D02*
X157665476Y-72129761D01*
X157808333Y-72177380D01*
X157903571Y-72177380D01*
X158046428Y-72129761D01*
X158141666Y-72034523D01*
X158189285Y-71939285D01*
X158236904Y-71748809D01*
X158236904Y-71605952D01*
X158189285Y-71415476D01*
X158141666Y-71320238D01*
X158046428Y-71225000D01*
X157903571Y-71177380D01*
X157808333Y-71177380D01*
X157665476Y-71225000D01*
X157617857Y-71272619D01*
X157236904Y-71272619D02*
X157189285Y-71225000D01*
X157094047Y-71177380D01*
X156855952Y-71177380D01*
X156760714Y-71225000D01*
X156713095Y-71272619D01*
X156665476Y-71367857D01*
X156665476Y-71463095D01*
X156713095Y-71605952D01*
X157284523Y-72177380D01*
X156665476Y-72177380D01*
X156332142Y-71177380D02*
X155713095Y-71177380D01*
X156046428Y-71558333D01*
X155903571Y-71558333D01*
X155808333Y-71605952D01*
X155760714Y-71653571D01*
X155713095Y-71748809D01*
X155713095Y-71986904D01*
X155760714Y-72082142D01*
X155808333Y-72129761D01*
X155903571Y-72177380D01*
X156189285Y-72177380D01*
X156284523Y-72129761D01*
X156332142Y-72082142D01*
X138742857Y-98444642D02*
X138790476Y-98492261D01*
X138933333Y-98539880D01*
X139028571Y-98539880D01*
X139171428Y-98492261D01*
X139266666Y-98397023D01*
X139314285Y-98301785D01*
X139361904Y-98111309D01*
X139361904Y-97968452D01*
X139314285Y-97777976D01*
X139266666Y-97682738D01*
X139171428Y-97587500D01*
X139028571Y-97539880D01*
X138933333Y-97539880D01*
X138790476Y-97587500D01*
X138742857Y-97635119D01*
X138361904Y-97635119D02*
X138314285Y-97587500D01*
X138219047Y-97539880D01*
X137980952Y-97539880D01*
X137885714Y-97587500D01*
X137838095Y-97635119D01*
X137790476Y-97730357D01*
X137790476Y-97825595D01*
X137838095Y-97968452D01*
X138409523Y-98539880D01*
X137790476Y-98539880D01*
X136885714Y-97539880D02*
X137361904Y-97539880D01*
X137409523Y-98016071D01*
X137361904Y-97968452D01*
X137266666Y-97920833D01*
X137028571Y-97920833D01*
X136933333Y-97968452D01*
X136885714Y-98016071D01*
X136838095Y-98111309D01*
X136838095Y-98349404D01*
X136885714Y-98444642D01*
X136933333Y-98492261D01*
X137028571Y-98539880D01*
X137266666Y-98539880D01*
X137361904Y-98492261D01*
X137409523Y-98444642D01*
X131982142Y-83082142D02*
X132029761Y-83034523D01*
X132077380Y-82891666D01*
X132077380Y-82796428D01*
X132029761Y-82653571D01*
X131934523Y-82558333D01*
X131839285Y-82510714D01*
X131648809Y-82463095D01*
X131505952Y-82463095D01*
X131315476Y-82510714D01*
X131220238Y-82558333D01*
X131125000Y-82653571D01*
X131077380Y-82796428D01*
X131077380Y-82891666D01*
X131125000Y-83034523D01*
X131172619Y-83082142D01*
X131077380Y-83415476D02*
X131077380Y-84034523D01*
X131458333Y-83701190D01*
X131458333Y-83844047D01*
X131505952Y-83939285D01*
X131553571Y-83986904D01*
X131648809Y-84034523D01*
X131886904Y-84034523D01*
X131982142Y-83986904D01*
X132029761Y-83939285D01*
X132077380Y-83844047D01*
X132077380Y-83558333D01*
X132029761Y-83463095D01*
X131982142Y-83415476D01*
X132077380Y-84510714D02*
X132077380Y-84701190D01*
X132029761Y-84796428D01*
X131982142Y-84844047D01*
X131839285Y-84939285D01*
X131648809Y-84986904D01*
X131267857Y-84986904D01*
X131172619Y-84939285D01*
X131125000Y-84891666D01*
X131077380Y-84796428D01*
X131077380Y-84605952D01*
X131125000Y-84510714D01*
X131172619Y-84463095D01*
X131267857Y-84415476D01*
X131505952Y-84415476D01*
X131601190Y-84463095D01*
X131648809Y-84510714D01*
X131696428Y-84605952D01*
X131696428Y-84796428D01*
X131648809Y-84891666D01*
X131601190Y-84939285D01*
X131505952Y-84986904D01*
X133386142Y-78311142D02*
X133433761Y-78263523D01*
X133481380Y-78120666D01*
X133481380Y-78025428D01*
X133433761Y-77882571D01*
X133338523Y-77787333D01*
X133243285Y-77739714D01*
X133052809Y-77692095D01*
X132909952Y-77692095D01*
X132719476Y-77739714D01*
X132624238Y-77787333D01*
X132529000Y-77882571D01*
X132481380Y-78025428D01*
X132481380Y-78120666D01*
X132529000Y-78263523D01*
X132576619Y-78311142D01*
X132814714Y-79168285D02*
X133481380Y-79168285D01*
X132433761Y-78930190D02*
X133148047Y-78692095D01*
X133148047Y-79311142D01*
X132481380Y-79882571D02*
X132481380Y-79977809D01*
X132529000Y-80073047D01*
X132576619Y-80120666D01*
X132671857Y-80168285D01*
X132862333Y-80215904D01*
X133100428Y-80215904D01*
X133290904Y-80168285D01*
X133386142Y-80120666D01*
X133433761Y-80073047D01*
X133481380Y-79977809D01*
X133481380Y-79882571D01*
X133433761Y-79787333D01*
X133386142Y-79739714D01*
X133290904Y-79692095D01*
X133100428Y-79644476D01*
X132862333Y-79644476D01*
X132671857Y-79692095D01*
X132576619Y-79739714D01*
X132529000Y-79787333D01*
X132481380Y-79882571D01*
X131627380Y-88558333D02*
X131627380Y-88082142D01*
X130627380Y-88082142D01*
X130627380Y-88796428D02*
X130627380Y-89415476D01*
X131008333Y-89082142D01*
X131008333Y-89225000D01*
X131055952Y-89320238D01*
X131103571Y-89367857D01*
X131198809Y-89415476D01*
X131436904Y-89415476D01*
X131532142Y-89367857D01*
X131579761Y-89320238D01*
X131627380Y-89225000D01*
X131627380Y-88939285D01*
X131579761Y-88844047D01*
X131532142Y-88796428D01*
X125827380Y-80886904D02*
X126636904Y-80886904D01*
X126732142Y-80934523D01*
X126779761Y-80982142D01*
X126827380Y-81077380D01*
X126827380Y-81267857D01*
X126779761Y-81363095D01*
X126732142Y-81410714D01*
X126636904Y-81458333D01*
X125827380Y-81458333D01*
X125922619Y-81886904D02*
X125875000Y-81934523D01*
X125827380Y-82029761D01*
X125827380Y-82267857D01*
X125875000Y-82363095D01*
X125922619Y-82410714D01*
X126017857Y-82458333D01*
X126113095Y-82458333D01*
X126255952Y-82410714D01*
X126827380Y-81839285D01*
X126827380Y-82458333D01*
X125827380Y-83315476D02*
X125827380Y-83125000D01*
X125875000Y-83029761D01*
X125922619Y-82982142D01*
X126065476Y-82886904D01*
X126255952Y-82839285D01*
X126636904Y-82839285D01*
X126732142Y-82886904D01*
X126779761Y-82934523D01*
X126827380Y-83029761D01*
X126827380Y-83220238D01*
X126779761Y-83315476D01*
X126732142Y-83363095D01*
X126636904Y-83410714D01*
X126398809Y-83410714D01*
X126303571Y-83363095D01*
X126255952Y-83315476D01*
X126208333Y-83220238D01*
X126208333Y-83029761D01*
X126255952Y-82934523D01*
X126303571Y-82886904D01*
X126398809Y-82839285D01*
X125377380Y-107024404D02*
X126186904Y-107024404D01*
X126282142Y-107072023D01*
X126329761Y-107119642D01*
X126377380Y-107214880D01*
X126377380Y-107405357D01*
X126329761Y-107500595D01*
X126282142Y-107548214D01*
X126186904Y-107595833D01*
X125377380Y-107595833D01*
X125377380Y-107976785D02*
X125377380Y-108595833D01*
X125758333Y-108262500D01*
X125758333Y-108405357D01*
X125805952Y-108500595D01*
X125853571Y-108548214D01*
X125948809Y-108595833D01*
X126186904Y-108595833D01*
X126282142Y-108548214D01*
X126329761Y-108500595D01*
X126377380Y-108405357D01*
X126377380Y-108119642D01*
X126329761Y-108024404D01*
X126282142Y-107976785D01*
X125377380Y-108929166D02*
X125377380Y-109548214D01*
X125758333Y-109214880D01*
X125758333Y-109357738D01*
X125805952Y-109452976D01*
X125853571Y-109500595D01*
X125948809Y-109548214D01*
X126186904Y-109548214D01*
X126282142Y-109500595D01*
X126329761Y-109452976D01*
X126377380Y-109357738D01*
X126377380Y-109072023D01*
X126329761Y-108976785D01*
X126282142Y-108929166D01*
X132257142Y-98019642D02*
X132304761Y-97972023D01*
X132352380Y-97829166D01*
X132352380Y-97733928D01*
X132304761Y-97591071D01*
X132209523Y-97495833D01*
X132114285Y-97448214D01*
X131923809Y-97400595D01*
X131780952Y-97400595D01*
X131590476Y-97448214D01*
X131495238Y-97495833D01*
X131400000Y-97591071D01*
X131352380Y-97733928D01*
X131352380Y-97829166D01*
X131400000Y-97972023D01*
X131447619Y-98019642D01*
X131352380Y-98352976D02*
X131352380Y-98972023D01*
X131733333Y-98638690D01*
X131733333Y-98781547D01*
X131780952Y-98876785D01*
X131828571Y-98924404D01*
X131923809Y-98972023D01*
X132161904Y-98972023D01*
X132257142Y-98924404D01*
X132304761Y-98876785D01*
X132352380Y-98781547D01*
X132352380Y-98495833D01*
X132304761Y-98400595D01*
X132257142Y-98352976D01*
X131352380Y-99591071D02*
X131352380Y-99686309D01*
X131400000Y-99781547D01*
X131447619Y-99829166D01*
X131542857Y-99876785D01*
X131733333Y-99924404D01*
X131971428Y-99924404D01*
X132161904Y-99876785D01*
X132257142Y-99829166D01*
X132304761Y-99781547D01*
X132352380Y-99686309D01*
X132352380Y-99591071D01*
X132304761Y-99495833D01*
X132257142Y-99448214D01*
X132161904Y-99400595D01*
X131971428Y-99352976D01*
X131733333Y-99352976D01*
X131542857Y-99400595D01*
X131447619Y-99448214D01*
X131400000Y-99495833D01*
X131352380Y-99591071D01*
X150857142Y-98219642D02*
X150904761Y-98172023D01*
X150952380Y-98029166D01*
X150952380Y-97933928D01*
X150904761Y-97791071D01*
X150809523Y-97695833D01*
X150714285Y-97648214D01*
X150523809Y-97600595D01*
X150380952Y-97600595D01*
X150190476Y-97648214D01*
X150095238Y-97695833D01*
X150000000Y-97791071D01*
X149952380Y-97933928D01*
X149952380Y-98029166D01*
X150000000Y-98172023D01*
X150047619Y-98219642D01*
X149952380Y-99124404D02*
X149952380Y-98648214D01*
X150428571Y-98600595D01*
X150380952Y-98648214D01*
X150333333Y-98743452D01*
X150333333Y-98981547D01*
X150380952Y-99076785D01*
X150428571Y-99124404D01*
X150523809Y-99172023D01*
X150761904Y-99172023D01*
X150857142Y-99124404D01*
X150904761Y-99076785D01*
X150952380Y-98981547D01*
X150952380Y-98743452D01*
X150904761Y-98648214D01*
X150857142Y-98600595D01*
X150952380Y-100124404D02*
X150952380Y-99552976D01*
X150952380Y-99838690D02*
X149952380Y-99838690D01*
X150095238Y-99743452D01*
X150190476Y-99648214D01*
X150238095Y-99552976D01*
X131107180Y-114895833D02*
X131107180Y-114419642D01*
X130107180Y-114419642D01*
X130440514Y-115657738D02*
X131107180Y-115657738D01*
X130059561Y-115419642D02*
X130773847Y-115181547D01*
X130773847Y-115800595D01*
X131707142Y-109219642D02*
X131754761Y-109172023D01*
X131802380Y-109029166D01*
X131802380Y-108933928D01*
X131754761Y-108791071D01*
X131659523Y-108695833D01*
X131564285Y-108648214D01*
X131373809Y-108600595D01*
X131230952Y-108600595D01*
X131040476Y-108648214D01*
X130945238Y-108695833D01*
X130850000Y-108791071D01*
X130802380Y-108933928D01*
X130802380Y-109029166D01*
X130850000Y-109172023D01*
X130897619Y-109219642D01*
X130802380Y-110124404D02*
X130802380Y-109648214D01*
X131278571Y-109600595D01*
X131230952Y-109648214D01*
X131183333Y-109743452D01*
X131183333Y-109981547D01*
X131230952Y-110076785D01*
X131278571Y-110124404D01*
X131373809Y-110172023D01*
X131611904Y-110172023D01*
X131707142Y-110124404D01*
X131754761Y-110076785D01*
X131802380Y-109981547D01*
X131802380Y-109743452D01*
X131754761Y-109648214D01*
X131707142Y-109600595D01*
X130802380Y-110791071D02*
X130802380Y-110886309D01*
X130850000Y-110981547D01*
X130897619Y-111029166D01*
X130992857Y-111076785D01*
X131183333Y-111124404D01*
X131421428Y-111124404D01*
X131611904Y-111076785D01*
X131707142Y-111029166D01*
X131754761Y-110981547D01*
X131802380Y-110886309D01*
X131802380Y-110791071D01*
X131754761Y-110695833D01*
X131707142Y-110648214D01*
X131611904Y-110600595D01*
X131421428Y-110552976D01*
X131183333Y-110552976D01*
X130992857Y-110600595D01*
X130897619Y-110648214D01*
X130850000Y-110695833D01*
X130802380Y-110791071D01*
X150307142Y-109019642D02*
X150354761Y-108972023D01*
X150402380Y-108829166D01*
X150402380Y-108733928D01*
X150354761Y-108591071D01*
X150259523Y-108495833D01*
X150164285Y-108448214D01*
X149973809Y-108400595D01*
X149830952Y-108400595D01*
X149640476Y-108448214D01*
X149545238Y-108495833D01*
X149450000Y-108591071D01*
X149402380Y-108733928D01*
X149402380Y-108829166D01*
X149450000Y-108972023D01*
X149497619Y-109019642D01*
X149497619Y-109400595D02*
X149450000Y-109448214D01*
X149402380Y-109543452D01*
X149402380Y-109781547D01*
X149450000Y-109876785D01*
X149497619Y-109924404D01*
X149592857Y-109972023D01*
X149688095Y-109972023D01*
X149830952Y-109924404D01*
X150402380Y-109352976D01*
X150402380Y-109972023D01*
X150402380Y-110448214D02*
X150402380Y-110638690D01*
X150354761Y-110733928D01*
X150307142Y-110781547D01*
X150164285Y-110876785D01*
X149973809Y-110924404D01*
X149592857Y-110924404D01*
X149497619Y-110876785D01*
X149450000Y-110829166D01*
X149402380Y-110733928D01*
X149402380Y-110543452D01*
X149450000Y-110448214D01*
X149497619Y-110400595D01*
X149592857Y-110352976D01*
X149830952Y-110352976D01*
X149926190Y-110400595D01*
X149973809Y-110448214D01*
X150021428Y-110543452D01*
X150021428Y-110733928D01*
X149973809Y-110829166D01*
X149926190Y-110876785D01*
X149830952Y-110924404D01*
X156942857Y-98419642D02*
X156990476Y-98467261D01*
X157133333Y-98514880D01*
X157228571Y-98514880D01*
X157371428Y-98467261D01*
X157466666Y-98372023D01*
X157514285Y-98276785D01*
X157561904Y-98086309D01*
X157561904Y-97943452D01*
X157514285Y-97752976D01*
X157466666Y-97657738D01*
X157371428Y-97562500D01*
X157228571Y-97514880D01*
X157133333Y-97514880D01*
X156990476Y-97562500D01*
X156942857Y-97610119D01*
X155990476Y-98514880D02*
X156561904Y-98514880D01*
X156276190Y-98514880D02*
X156276190Y-97514880D01*
X156371428Y-97657738D01*
X156466666Y-97752976D01*
X156561904Y-97800595D01*
X155514285Y-98514880D02*
X155323809Y-98514880D01*
X155228571Y-98467261D01*
X155180952Y-98419642D01*
X155085714Y-98276785D01*
X155038095Y-98086309D01*
X155038095Y-97705357D01*
X155085714Y-97610119D01*
X155133333Y-97562500D01*
X155228571Y-97514880D01*
X155419047Y-97514880D01*
X155514285Y-97562500D01*
X155561904Y-97610119D01*
X155609523Y-97705357D01*
X155609523Y-97943452D01*
X155561904Y-98038690D01*
X155514285Y-98086309D01*
X155419047Y-98133928D01*
X155228571Y-98133928D01*
X155133333Y-98086309D01*
X155085714Y-98038690D01*
X155038095Y-97943452D01*
X149602380Y-114895833D02*
X149602380Y-114419642D01*
X148602380Y-114419642D01*
X149602380Y-115752976D02*
X149602380Y-115181547D01*
X149602380Y-115467261D02*
X148602380Y-115467261D01*
X148745238Y-115372023D01*
X148840476Y-115276785D01*
X148888095Y-115181547D01*
X143952380Y-106824404D02*
X144761904Y-106824404D01*
X144857142Y-106872023D01*
X144904761Y-106919642D01*
X144952380Y-107014880D01*
X144952380Y-107205357D01*
X144904761Y-107300595D01*
X144857142Y-107348214D01*
X144761904Y-107395833D01*
X143952380Y-107395833D01*
X144047619Y-107824404D02*
X144000000Y-107872023D01*
X143952380Y-107967261D01*
X143952380Y-108205357D01*
X144000000Y-108300595D01*
X144047619Y-108348214D01*
X144142857Y-108395833D01*
X144238095Y-108395833D01*
X144380952Y-108348214D01*
X144952380Y-107776785D01*
X144952380Y-108395833D01*
X144047619Y-108776785D02*
X144000000Y-108824404D01*
X143952380Y-108919642D01*
X143952380Y-109157738D01*
X144000000Y-109252976D01*
X144047619Y-109300595D01*
X144142857Y-109348214D01*
X144238095Y-109348214D01*
X144380952Y-109300595D01*
X144952380Y-108729166D01*
X144952380Y-109348214D01*
X116393940Y-92266100D02*
X116441559Y-92313719D01*
X116584416Y-92361338D01*
X116679654Y-92361338D01*
X116822511Y-92313719D01*
X116917749Y-92218481D01*
X116965368Y-92123243D01*
X117012987Y-91932767D01*
X117012987Y-91789910D01*
X116965368Y-91599434D01*
X116917749Y-91504196D01*
X116822511Y-91408958D01*
X116679654Y-91361338D01*
X116584416Y-91361338D01*
X116441559Y-91408958D01*
X116393940Y-91456577D01*
X115536797Y-91694672D02*
X115536797Y-92361338D01*
X115774892Y-91313719D02*
X116012987Y-92028005D01*
X115393940Y-92028005D01*
X114536797Y-91361338D02*
X115012987Y-91361338D01*
X115060606Y-91837529D01*
X115012987Y-91789910D01*
X114917749Y-91742291D01*
X114679654Y-91742291D01*
X114584416Y-91789910D01*
X114536797Y-91837529D01*
X114489178Y-91932767D01*
X114489178Y-92170862D01*
X114536797Y-92266100D01*
X114584416Y-92313719D01*
X114679654Y-92361338D01*
X114917749Y-92361338D01*
X115012987Y-92313719D01*
X115060606Y-92266100D01*
X112162440Y-105286059D02*
X112210059Y-105333678D01*
X112352916Y-105381297D01*
X112448154Y-105381297D01*
X112591011Y-105333678D01*
X112686249Y-105238440D01*
X112733868Y-105143202D01*
X112781487Y-104952726D01*
X112781487Y-104809869D01*
X112733868Y-104619393D01*
X112686249Y-104524155D01*
X112591011Y-104428917D01*
X112448154Y-104381297D01*
X112352916Y-104381297D01*
X112210059Y-104428917D01*
X112162440Y-104476536D01*
X111257678Y-104381297D02*
X111733868Y-104381297D01*
X111781487Y-104857488D01*
X111733868Y-104809869D01*
X111638630Y-104762250D01*
X111400535Y-104762250D01*
X111305297Y-104809869D01*
X111257678Y-104857488D01*
X111210059Y-104952726D01*
X111210059Y-105190821D01*
X111257678Y-105286059D01*
X111305297Y-105333678D01*
X111400535Y-105381297D01*
X111638630Y-105381297D01*
X111733868Y-105333678D01*
X111781487Y-105286059D01*
X110352916Y-104381297D02*
X110543392Y-104381297D01*
X110638630Y-104428917D01*
X110686249Y-104476536D01*
X110781487Y-104619393D01*
X110829106Y-104809869D01*
X110829106Y-105190821D01*
X110781487Y-105286059D01*
X110733868Y-105333678D01*
X110638630Y-105381297D01*
X110448154Y-105381297D01*
X110352916Y-105333678D01*
X110305297Y-105286059D01*
X110257678Y-105190821D01*
X110257678Y-104952726D01*
X110305297Y-104857488D01*
X110352916Y-104809869D01*
X110448154Y-104762250D01*
X110638630Y-104762250D01*
X110733868Y-104809869D01*
X110781487Y-104857488D01*
X110829106Y-104952726D01*
X116480440Y-105160059D02*
X116528059Y-105207678D01*
X116670916Y-105255297D01*
X116766154Y-105255297D01*
X116909011Y-105207678D01*
X117004249Y-105112440D01*
X117051868Y-105017202D01*
X117099487Y-104826726D01*
X117099487Y-104683869D01*
X117051868Y-104493393D01*
X117004249Y-104398155D01*
X116909011Y-104302917D01*
X116766154Y-104255297D01*
X116670916Y-104255297D01*
X116528059Y-104302917D01*
X116480440Y-104350536D01*
X115575678Y-104255297D02*
X116051868Y-104255297D01*
X116099487Y-104731488D01*
X116051868Y-104683869D01*
X115956630Y-104636250D01*
X115718535Y-104636250D01*
X115623297Y-104683869D01*
X115575678Y-104731488D01*
X115528059Y-104826726D01*
X115528059Y-105064821D01*
X115575678Y-105160059D01*
X115623297Y-105207678D01*
X115718535Y-105255297D01*
X115956630Y-105255297D01*
X116051868Y-105207678D01*
X116099487Y-105160059D01*
X115194725Y-104255297D02*
X114575678Y-104255297D01*
X114909011Y-104636250D01*
X114766154Y-104636250D01*
X114670916Y-104683869D01*
X114623297Y-104731488D01*
X114575678Y-104826726D01*
X114575678Y-105064821D01*
X114623297Y-105160059D01*
X114670916Y-105207678D01*
X114766154Y-105255297D01*
X115051868Y-105255297D01*
X115147106Y-105207678D01*
X115194725Y-105160059D01*
X104702380Y-107276514D02*
X103702380Y-107276514D01*
X103702380Y-107514609D01*
X103750000Y-107657466D01*
X103845238Y-107752704D01*
X103940476Y-107800323D01*
X104130952Y-107847942D01*
X104273809Y-107847942D01*
X104464285Y-107800323D01*
X104559523Y-107752704D01*
X104654761Y-107657466D01*
X104702380Y-107514609D01*
X104702380Y-107276514D01*
X103797619Y-108228895D02*
X103750000Y-108276514D01*
X103702380Y-108371752D01*
X103702380Y-108609847D01*
X103750000Y-108705085D01*
X103797619Y-108752704D01*
X103892857Y-108800323D01*
X103988095Y-108800323D01*
X104130952Y-108752704D01*
X104702380Y-108181276D01*
X104702380Y-108800323D01*
X103702380Y-109419371D02*
X103702380Y-109514609D01*
X103750000Y-109609847D01*
X103797619Y-109657466D01*
X103892857Y-109705085D01*
X104083333Y-109752704D01*
X104321428Y-109752704D01*
X104511904Y-109705085D01*
X104607142Y-109657466D01*
X104654761Y-109609847D01*
X104702380Y-109514609D01*
X104702380Y-109419371D01*
X104654761Y-109324133D01*
X104607142Y-109276514D01*
X104511904Y-109228895D01*
X104321428Y-109181276D01*
X104083333Y-109181276D01*
X103892857Y-109228895D01*
X103797619Y-109276514D01*
X103750000Y-109324133D01*
X103702380Y-109419371D01*
X114951678Y-106310297D02*
X114951678Y-107119821D01*
X114904059Y-107215059D01*
X114856440Y-107262678D01*
X114761202Y-107310297D01*
X114570725Y-107310297D01*
X114475487Y-107262678D01*
X114427868Y-107215059D01*
X114380249Y-107119821D01*
X114380249Y-106310297D01*
X113999297Y-106310297D02*
X113380249Y-106310297D01*
X113713583Y-106691250D01*
X113570725Y-106691250D01*
X113475487Y-106738869D01*
X113427868Y-106786488D01*
X113380249Y-106881726D01*
X113380249Y-107119821D01*
X113427868Y-107215059D01*
X113475487Y-107262678D01*
X113570725Y-107310297D01*
X113856440Y-107310297D01*
X113951678Y-107262678D01*
X113999297Y-107215059D01*
X112523106Y-106643631D02*
X112523106Y-107310297D01*
X112761202Y-106262678D02*
X112999297Y-106976964D01*
X112380249Y-106976964D01*
X119093963Y-115555059D02*
X118617773Y-115221726D01*
X119093963Y-114983631D02*
X118093963Y-114983631D01*
X118093963Y-115364583D01*
X118141583Y-115459821D01*
X118189202Y-115507440D01*
X118284440Y-115555059D01*
X118427297Y-115555059D01*
X118522535Y-115507440D01*
X118570154Y-115459821D01*
X118617773Y-115364583D01*
X118617773Y-114983631D01*
X118093963Y-116412202D02*
X118093963Y-116221726D01*
X118141583Y-116126488D01*
X118189202Y-116078869D01*
X118332059Y-115983631D01*
X118522535Y-115936012D01*
X118903487Y-115936012D01*
X118998725Y-115983631D01*
X119046344Y-116031250D01*
X119093963Y-116126488D01*
X119093963Y-116316964D01*
X119046344Y-116412202D01*
X118998725Y-116459821D01*
X118903487Y-116507440D01*
X118665392Y-116507440D01*
X118570154Y-116459821D01*
X118522535Y-116412202D01*
X118474916Y-116316964D01*
X118474916Y-116126488D01*
X118522535Y-116031250D01*
X118570154Y-115983631D01*
X118665392Y-115936012D01*
X118093963Y-117126488D02*
X118093963Y-117221726D01*
X118141583Y-117316964D01*
X118189202Y-117364583D01*
X118284440Y-117412202D01*
X118474916Y-117459821D01*
X118713011Y-117459821D01*
X118903487Y-117412202D01*
X118998725Y-117364583D01*
X119046344Y-117316964D01*
X119093963Y-117221726D01*
X119093963Y-117126488D01*
X119046344Y-117031250D01*
X118998725Y-116983631D01*
X118903487Y-116936012D01*
X118713011Y-116888393D01*
X118474916Y-116888393D01*
X118284440Y-116936012D01*
X118189202Y-116983631D01*
X118141583Y-117031250D01*
X118093963Y-117126488D01*
X121836440Y-116048297D02*
X122169773Y-115572107D01*
X122407868Y-116048297D02*
X122407868Y-115048297D01*
X122026916Y-115048297D01*
X121931678Y-115095917D01*
X121884059Y-115143536D01*
X121836440Y-115238774D01*
X121836440Y-115381631D01*
X121884059Y-115476869D01*
X121931678Y-115524488D01*
X122026916Y-115572107D01*
X122407868Y-115572107D01*
X120979297Y-115048297D02*
X121169773Y-115048297D01*
X121265011Y-115095917D01*
X121312630Y-115143536D01*
X121407868Y-115286393D01*
X121455487Y-115476869D01*
X121455487Y-115857821D01*
X121407868Y-115953059D01*
X121360249Y-116000678D01*
X121265011Y-116048297D01*
X121074535Y-116048297D01*
X120979297Y-116000678D01*
X120931678Y-115953059D01*
X120884059Y-115857821D01*
X120884059Y-115619726D01*
X120931678Y-115524488D01*
X120979297Y-115476869D01*
X121074535Y-115429250D01*
X121265011Y-115429250D01*
X121360249Y-115476869D01*
X121407868Y-115524488D01*
X121455487Y-115619726D01*
X119931678Y-116048297D02*
X120503106Y-116048297D01*
X120217392Y-116048297D02*
X120217392Y-115048297D01*
X120312630Y-115191155D01*
X120407868Y-115286393D01*
X120503106Y-115334012D01*
X108499680Y-115531642D02*
X108023490Y-115198309D01*
X108499680Y-114960214D02*
X107499680Y-114960214D01*
X107499680Y-115341166D01*
X107547300Y-115436404D01*
X107594919Y-115484023D01*
X107690157Y-115531642D01*
X107833014Y-115531642D01*
X107928252Y-115484023D01*
X107975871Y-115436404D01*
X108023490Y-115341166D01*
X108023490Y-114960214D01*
X107499680Y-116388785D02*
X107499680Y-116198309D01*
X107547300Y-116103071D01*
X107594919Y-116055452D01*
X107737776Y-115960214D01*
X107928252Y-115912595D01*
X108309204Y-115912595D01*
X108404442Y-115960214D01*
X108452061Y-116007833D01*
X108499680Y-116103071D01*
X108499680Y-116293547D01*
X108452061Y-116388785D01*
X108404442Y-116436404D01*
X108309204Y-116484023D01*
X108071109Y-116484023D01*
X107975871Y-116436404D01*
X107928252Y-116388785D01*
X107880633Y-116293547D01*
X107880633Y-116103071D01*
X107928252Y-116007833D01*
X107975871Y-115960214D01*
X108071109Y-115912595D01*
X107499680Y-117341166D02*
X107499680Y-117150690D01*
X107547300Y-117055452D01*
X107594919Y-117007833D01*
X107737776Y-116912595D01*
X107928252Y-116864976D01*
X108309204Y-116864976D01*
X108404442Y-116912595D01*
X108452061Y-116960214D01*
X108499680Y-117055452D01*
X108499680Y-117245928D01*
X108452061Y-117341166D01*
X108404442Y-117388785D01*
X108309204Y-117436404D01*
X108071109Y-117436404D01*
X107975871Y-117388785D01*
X107928252Y-117341166D01*
X107880633Y-117245928D01*
X107880633Y-117055452D01*
X107928252Y-116960214D01*
X107975871Y-116912595D01*
X108071109Y-116864976D01*
X115486440Y-116090059D02*
X115534059Y-116137678D01*
X115676916Y-116185297D01*
X115772154Y-116185297D01*
X115915011Y-116137678D01*
X116010249Y-116042440D01*
X116057868Y-115947202D01*
X116105487Y-115756726D01*
X116105487Y-115613869D01*
X116057868Y-115423393D01*
X116010249Y-115328155D01*
X115915011Y-115232917D01*
X115772154Y-115185297D01*
X115676916Y-115185297D01*
X115534059Y-115232917D01*
X115486440Y-115280536D01*
X114581678Y-115185297D02*
X115057868Y-115185297D01*
X115105487Y-115661488D01*
X115057868Y-115613869D01*
X114962630Y-115566250D01*
X114724535Y-115566250D01*
X114629297Y-115613869D01*
X114581678Y-115661488D01*
X114534059Y-115756726D01*
X114534059Y-115994821D01*
X114581678Y-116090059D01*
X114629297Y-116137678D01*
X114724535Y-116185297D01*
X114962630Y-116185297D01*
X115057868Y-116137678D01*
X115105487Y-116090059D01*
X113676916Y-115518631D02*
X113676916Y-116185297D01*
X113915011Y-115137678D02*
X114153106Y-115851964D01*
X113534059Y-115851964D01*
X119293963Y-104393059D02*
X118817773Y-104059726D01*
X119293963Y-103821631D02*
X118293963Y-103821631D01*
X118293963Y-104202583D01*
X118341583Y-104297821D01*
X118389202Y-104345440D01*
X118484440Y-104393059D01*
X118627297Y-104393059D01*
X118722535Y-104345440D01*
X118770154Y-104297821D01*
X118817773Y-104202583D01*
X118817773Y-103821631D01*
X118293963Y-105250202D02*
X118293963Y-105059726D01*
X118341583Y-104964488D01*
X118389202Y-104916869D01*
X118532059Y-104821631D01*
X118722535Y-104774012D01*
X119103487Y-104774012D01*
X119198725Y-104821631D01*
X119246344Y-104869250D01*
X119293963Y-104964488D01*
X119293963Y-105154964D01*
X119246344Y-105250202D01*
X119198725Y-105297821D01*
X119103487Y-105345440D01*
X118865392Y-105345440D01*
X118770154Y-105297821D01*
X118722535Y-105250202D01*
X118674916Y-105154964D01*
X118674916Y-104964488D01*
X118722535Y-104869250D01*
X118770154Y-104821631D01*
X118865392Y-104774012D01*
X118389202Y-105726393D02*
X118341583Y-105774012D01*
X118293963Y-105869250D01*
X118293963Y-106107345D01*
X118341583Y-106202583D01*
X118389202Y-106250202D01*
X118484440Y-106297821D01*
X118579678Y-106297821D01*
X118722535Y-106250202D01*
X119293963Y-105678774D01*
X119293963Y-106297821D01*
X106443880Y-115671142D02*
X105967690Y-115337809D01*
X106443880Y-115099714D02*
X105443880Y-115099714D01*
X105443880Y-115480666D01*
X105491500Y-115575904D01*
X105539119Y-115623523D01*
X105634357Y-115671142D01*
X105777214Y-115671142D01*
X105872452Y-115623523D01*
X105920071Y-115575904D01*
X105967690Y-115480666D01*
X105967690Y-115099714D01*
X105443880Y-116528285D02*
X105443880Y-116337809D01*
X105491500Y-116242571D01*
X105539119Y-116194952D01*
X105681976Y-116099714D01*
X105872452Y-116052095D01*
X106253404Y-116052095D01*
X106348642Y-116099714D01*
X106396261Y-116147333D01*
X106443880Y-116242571D01*
X106443880Y-116433047D01*
X106396261Y-116528285D01*
X106348642Y-116575904D01*
X106253404Y-116623523D01*
X106015309Y-116623523D01*
X105920071Y-116575904D01*
X105872452Y-116528285D01*
X105824833Y-116433047D01*
X105824833Y-116242571D01*
X105872452Y-116147333D01*
X105920071Y-116099714D01*
X106015309Y-116052095D01*
X105443880Y-117528285D02*
X105443880Y-117052095D01*
X105920071Y-117004476D01*
X105872452Y-117052095D01*
X105824833Y-117147333D01*
X105824833Y-117385428D01*
X105872452Y-117480666D01*
X105920071Y-117528285D01*
X106015309Y-117575904D01*
X106253404Y-117575904D01*
X106348642Y-117528285D01*
X106396261Y-117480666D01*
X106443880Y-117385428D01*
X106443880Y-117147333D01*
X106396261Y-117052095D01*
X106348642Y-117004476D01*
X110902380Y-82933333D02*
X110426190Y-82600000D01*
X110902380Y-82361904D02*
X109902380Y-82361904D01*
X109902380Y-82742857D01*
X109950000Y-82838095D01*
X109997619Y-82885714D01*
X110092857Y-82933333D01*
X110235714Y-82933333D01*
X110330952Y-82885714D01*
X110378571Y-82838095D01*
X110426190Y-82742857D01*
X110426190Y-82361904D01*
X110235714Y-83790476D02*
X110902380Y-83790476D01*
X109854761Y-83552380D02*
X110569047Y-83314285D01*
X110569047Y-83933333D01*
D11*
X98369583Y-94202917D02*
X102269583Y-94202917D01*
X98369583Y-94202917D02*
X98369583Y-92202917D01*
X98369583Y-92202917D02*
X102269583Y-92202917D01*
X113576083Y-101493958D02*
X111376083Y-101493958D01*
X113576083Y-101493958D02*
X115776083Y-101493958D01*
X113576083Y-94723958D02*
X117176083Y-94723958D01*
X113576083Y-94723958D02*
X111376083Y-94723958D01*
X149285000Y-84183578D02*
X149285000Y-83666422D01*
X147865000Y-84183578D02*
X147865000Y-83666422D01*
X151885000Y-75666422D02*
X151885000Y-76183578D01*
X150465000Y-75666422D02*
X150465000Y-76183578D01*
X113174422Y-81299000D02*
X113691578Y-81299000D01*
X113174422Y-82719000D02*
X113691578Y-82719000D01*
X117247578Y-82719000D02*
X116730422Y-82719000D01*
X117247578Y-81299000D02*
X116730422Y-81299000D01*
X113095922Y-72409000D02*
X113613078Y-72409000D01*
X113095922Y-73829000D02*
X113613078Y-73829000D01*
X117247578Y-73829000D02*
X116730422Y-73829000D01*
X117247578Y-72409000D02*
X116730422Y-72409000D01*
X111142505Y-103368958D02*
X111659661Y-103368958D01*
X111142505Y-101948958D02*
X111659661Y-101948958D01*
X111167505Y-94268958D02*
X111684661Y-94268958D01*
X111167505Y-92848958D02*
X111684661Y-92848958D01*
X98373983Y-89791037D02*
X102273983Y-89791037D01*
X98373983Y-91791037D02*
X98373983Y-89791037D01*
X98373983Y-91791037D02*
X102273983Y-91791037D01*
X98344583Y-101527917D02*
X98344583Y-99527917D01*
X98344583Y-99527917D02*
X102244583Y-99527917D01*
X98344583Y-101527917D02*
X102244583Y-101527917D01*
X98344583Y-104067917D02*
X102244583Y-104067917D01*
X98344583Y-104067917D02*
X98344583Y-102067917D01*
X98344583Y-102067917D02*
X102244583Y-102067917D01*
X104541083Y-94748958D02*
X106461083Y-94748958D01*
X106461083Y-94748958D02*
X106461083Y-97433958D01*
X104541083Y-97433958D02*
X104541083Y-94748958D01*
X106566083Y-97433958D02*
X106566083Y-94748958D01*
X106566083Y-94748958D02*
X108486083Y-94748958D01*
X108486083Y-94748958D02*
X108486083Y-97433958D01*
X104915000Y-107702500D02*
X106835000Y-107702500D01*
X106835000Y-107702500D02*
X106835000Y-110387500D01*
X104915000Y-110387500D02*
X104915000Y-107702500D01*
X161372000Y-89429000D02*
X161372000Y-78829000D01*
X153972000Y-78829000D02*
X150772000Y-78829000D01*
X158172000Y-89429000D02*
X161372000Y-89429000D01*
X150772000Y-89429000D02*
X153972000Y-89429000D01*
X161372000Y-78829000D02*
X158172000Y-78829000D01*
X150772000Y-78829000D02*
X150772000Y-89429000D01*
X117816083Y-100192536D02*
X117816083Y-99675380D01*
X119236083Y-100192536D02*
X119236083Y-99675380D01*
X118034661Y-103393958D02*
X117517505Y-103393958D01*
X118034661Y-101973958D02*
X117517505Y-101973958D01*
X117766083Y-96461022D02*
X117766083Y-95256894D01*
X119586083Y-96461022D02*
X119586083Y-95256894D01*
X106211083Y-100167536D02*
X106211083Y-99650380D01*
X104791083Y-100167536D02*
X104791083Y-99650380D01*
X106816083Y-100167536D02*
X106816083Y-99650380D01*
X108236083Y-100167536D02*
X108236083Y-99650380D01*
X144240000Y-76525000D02*
X144240000Y-74325000D01*
X149710000Y-76525000D02*
X149710000Y-74325000D01*
X144240000Y-76525000D02*
X144240000Y-78725000D01*
X149710000Y-76525000D02*
X149710000Y-80175000D01*
X114957000Y-88379000D02*
X116907000Y-88379000D01*
X114957000Y-88379000D02*
X111507000Y-88379000D01*
X114957000Y-83259000D02*
X113007000Y-83259000D01*
X114957000Y-83259000D02*
X116907000Y-83259000D01*
X114975000Y-79575000D02*
X111525000Y-79575000D01*
X114975000Y-74455000D02*
X116925000Y-74455000D01*
X114975000Y-74455000D02*
X113025000Y-74455000D01*
X114975000Y-79575000D02*
X116925000Y-79575000D01*
X134165000Y-72665000D02*
X142225000Y-72665000D01*
X134165000Y-77185000D02*
X134165000Y-72665000D01*
X142225000Y-77185000D02*
X134165000Y-77185000D01*
X152565000Y-72865000D02*
X160625000Y-72865000D01*
X152565000Y-77385000D02*
X152565000Y-72865000D01*
X160625000Y-77385000D02*
X152565000Y-77385000D01*
X133690000Y-99002500D02*
X141750000Y-99002500D01*
X141750000Y-103522500D02*
X133690000Y-103522500D01*
X133690000Y-103522500D02*
X133690000Y-99002500D01*
X130685000Y-83983578D02*
X130685000Y-83466422D01*
X129265000Y-83983578D02*
X129265000Y-83466422D01*
X133485000Y-75266422D02*
X133485000Y-75783578D01*
X132065000Y-75266422D02*
X132065000Y-75783578D01*
X139675000Y-89425000D02*
X142875000Y-89425000D01*
X142875000Y-78825000D02*
X139675000Y-78825000D01*
X135475000Y-78825000D02*
X132275000Y-78825000D01*
X132275000Y-78825000D02*
X132275000Y-89425000D01*
X142875000Y-89425000D02*
X142875000Y-78825000D01*
X132275000Y-89425000D02*
X135475000Y-89425000D01*
X125640000Y-76525000D02*
X125640000Y-74325000D01*
X131110000Y-76525000D02*
X131110000Y-80175000D01*
X125640000Y-76525000D02*
X125640000Y-78725000D01*
X131110000Y-76525000D02*
X131110000Y-74325000D01*
X125190000Y-102662500D02*
X125190000Y-100462500D01*
X125190000Y-102662500D02*
X125190000Y-104862500D01*
X130660000Y-102662500D02*
X130660000Y-106312500D01*
X130660000Y-102662500D02*
X130660000Y-100462500D01*
X131390000Y-101803922D02*
X131390000Y-102321078D01*
X132810000Y-101803922D02*
X132810000Y-102321078D01*
X149990000Y-101803922D02*
X149990000Y-102321078D01*
X151410000Y-101803922D02*
X151410000Y-102321078D01*
X131704800Y-115879500D02*
X134904800Y-115879500D01*
X139104800Y-115879500D02*
X142304800Y-115879500D01*
X131704800Y-105279500D02*
X131704800Y-115879500D01*
X134904800Y-105279500D02*
X131704800Y-105279500D01*
X142304800Y-115879500D02*
X142304800Y-105279500D01*
X142304800Y-105279500D02*
X139104800Y-105279500D01*
X130410000Y-110121078D02*
X130410000Y-109603922D01*
X128990000Y-110121078D02*
X128990000Y-109603922D01*
X149010000Y-109921078D02*
X149010000Y-109403922D01*
X147590000Y-109921078D02*
X147590000Y-109403922D01*
X152090000Y-99002500D02*
X160150000Y-99002500D01*
X152090000Y-103522500D02*
X152090000Y-99002500D01*
X160150000Y-103522500D02*
X152090000Y-103522500D01*
X157600000Y-115762500D02*
X160800000Y-115762500D01*
X160800000Y-105162500D02*
X157600000Y-105162500D01*
X160800000Y-115762500D02*
X160800000Y-105162500D01*
X150200000Y-105162500D02*
X150200000Y-115762500D01*
X153400000Y-105162500D02*
X150200000Y-105162500D01*
X150200000Y-115762500D02*
X153400000Y-115762500D01*
X143804000Y-102610500D02*
X143804000Y-104810500D01*
X143804000Y-102610500D02*
X143804000Y-100410500D01*
X149274000Y-102610500D02*
X149274000Y-106260500D01*
X149274000Y-102610500D02*
X149274000Y-100410500D01*
X116009661Y-92848958D02*
X115492505Y-92848958D01*
X116009661Y-94268958D02*
X115492505Y-94268958D01*
X111261005Y-107162917D02*
X111778161Y-107162917D01*
X111261005Y-105742917D02*
X111778161Y-105742917D01*
X116096161Y-105742917D02*
X115579005Y-105742917D01*
X116096161Y-107162917D02*
X115579005Y-107162917D01*
X108935000Y-107702500D02*
X108935000Y-110387500D01*
X107015000Y-107702500D02*
X108935000Y-107702500D01*
X107015000Y-110387500D02*
X107015000Y-107702500D01*
X113713583Y-114442917D02*
X115913583Y-114442917D01*
X113713583Y-107672917D02*
X111513583Y-107672917D01*
X113713583Y-107672917D02*
X117313583Y-107672917D01*
X113713583Y-114442917D02*
X111513583Y-114442917D01*
X117931583Y-113154495D02*
X117931583Y-112637339D01*
X119351583Y-113154495D02*
X119351583Y-112637339D01*
X118150161Y-116305917D02*
X117633005Y-116305917D01*
X118150161Y-114885917D02*
X117633005Y-114885917D01*
X107265000Y-113183578D02*
X107265000Y-112666422D01*
X108685000Y-113183578D02*
X108685000Y-112666422D01*
X111283005Y-116305917D02*
X111800161Y-116305917D01*
X111283005Y-114885917D02*
X111800161Y-114885917D01*
X117931583Y-109447981D02*
X117931583Y-108243853D01*
X119751583Y-109447981D02*
X119751583Y-108243853D01*
X105165000Y-113196078D02*
X105165000Y-112678922D01*
X106585000Y-113196078D02*
X106585000Y-112678922D01*
X109535000Y-83327064D02*
X109535000Y-82872936D01*
X108065000Y-83327064D02*
X108065000Y-82872936D01*
M02*
