G04 #@! TF.GenerationSoftware,KiCad,Pcbnew,(6.0.8)*
G04 #@! TF.CreationDate,2022-10-24T22:40:06+02:00*
G04 #@! TF.ProjectId,pcdu,70636475-2e6b-4696-9361-645f70636258,rev?*
G04 #@! TF.SameCoordinates,Original*
G04 #@! TF.FileFunction,Profile,NP*
%FSLAX46Y46*%
G04 Gerber Fmt 4.6, Leading zero omitted, Abs format (unit mm)*
G04 Created by KiCad (PCBNEW (6.0.8)) date 2022-10-24 22:40:06*
%MOMM*%
%LPD*%
G01*
G04 APERTURE LIST*
G04 #@! TA.AperFunction,Profile*
%ADD10C,0.100000*%
G04 #@! TD*
G04 APERTURE END LIST*
D10*
X82550000Y-78117700D02*
G75*
G03*
X83502500Y-79070200I952500J0D01*
G01*
X83502500Y-41275000D02*
G75*
G03*
X82550000Y-42227500I0J-952500D01*
G01*
X172720000Y-42227500D02*
G75*
G03*
X171767500Y-41275000I-952500J0D01*
G01*
X171767500Y-137160000D02*
G75*
G03*
X172720000Y-136207500I0J952500D01*
G01*
X171767500Y-79070200D02*
G75*
G03*
X172720000Y-78117700I0J952500D01*
G01*
X172720000Y-100317300D02*
G75*
G03*
X171767500Y-99364800I-952500J0D01*
G01*
X170815000Y-98412300D02*
G75*
G03*
X171767500Y-99364800I952500J0D01*
G01*
X172720000Y-100317300D02*
X172720000Y-136207500D01*
X170815000Y-80022700D02*
X170815000Y-98412300D01*
X172720000Y-42227500D02*
X172720000Y-78117700D01*
X171767500Y-79070200D02*
G75*
G03*
X170815000Y-80022700I0J-952500D01*
G01*
X138938000Y-136207500D02*
G75*
G03*
X137985500Y-135255000I-952500J0D01*
G01*
X138938000Y-136207500D02*
G75*
G03*
X139890500Y-137160000I952500J0D01*
G01*
X119570500Y-135255000D02*
X137985500Y-135255000D01*
X118618000Y-42227500D02*
G75*
G03*
X117665500Y-41275000I-952500J0D01*
G01*
X83502500Y-41275000D02*
X117665500Y-41275000D01*
X139890500Y-41275000D02*
X171767500Y-41275000D01*
X139890500Y-41275000D02*
G75*
G03*
X138938000Y-42227500I0J-952500D01*
G01*
X118618000Y-42227500D02*
G75*
G03*
X119570500Y-43180000I952500J0D01*
G01*
X119570500Y-43180000D02*
X137985500Y-43180000D01*
X137985500Y-43180000D02*
G75*
G03*
X138938000Y-42227500I0J952500D01*
G01*
X117665500Y-137160000D02*
G75*
G03*
X118618000Y-136207500I0J952500D01*
G01*
X119570500Y-135255000D02*
G75*
G03*
X118618000Y-136207500I0J-952500D01*
G01*
X83502500Y-99364800D02*
G75*
G03*
X82550000Y-100317300I0J-952500D01*
G01*
X83502500Y-99364800D02*
G75*
G03*
X84455000Y-98412300I0J952500D01*
G01*
X84455000Y-80022700D02*
G75*
G03*
X83502500Y-79070200I-952500J0D01*
G01*
X84455000Y-80022700D02*
X84455000Y-98412300D01*
X139890500Y-137160000D02*
X171767500Y-137160000D01*
X83502500Y-137160000D02*
X117665500Y-137160000D01*
X82640000Y-42179900D02*
X82640000Y-78070100D01*
X82550000Y-100317300D02*
X82550000Y-136207500D01*
X82550000Y-136207500D02*
G75*
G03*
X83502500Y-137160000I952500J0D01*
G01*
M02*
