M48
; DRILL file {KiCad (6.0.8)} date Mo 24 Okt 2022 22:39:51 CEST
; FORMAT={-:-/ absolute / inch / decimal}
; #@! TF.CreationDate,2022-10-24T22:39:51+02:00
; #@! TF.GenerationSoftware,Kicad,Pcbnew,(6.0.8)
; #@! TF.FileFunction,Plated,1,2,PTH
FMAT,2
INCH
; #@! TA.AperFunction,Plated,PTH,ViaDrill
T1C0.0157
; #@! TA.AperFunction,Plated,PTH,ViaDrill
T2C0.0315
; #@! TA.AperFunction,Plated,PTH,ComponentDrill
T3C0.0315
; #@! TA.AperFunction,Plated,PTH,ComponentDrill
T4C0.0394
; #@! TA.AperFunction,Plated,PTH,ViaDrill
T5C0.0787
; #@! TA.AperFunction,Plated,PTH,ComponentDrill
T6C0.1260
%
G90
G05
T1
X4.3091Y-3.0433
X4.3091Y-3.1742
X4.3156Y-2.4009
X4.4743Y-3.3028
X4.4754Y-2.9563
X4.7239Y-2.4001
X4.7477Y-4.4974
X4.7802Y-4.4974
X4.8885Y-4.4974
X4.9918Y-4.4974
X5.0243Y-4.4974
X5.0512Y-4.2333
X5.0568Y-4.4974
X5.1289Y-2.4016
X5.169Y-4.4974
X5.2835Y-4.498
X5.501Y-4.498
X5.5148Y-2.3986
X5.5472Y-4.498
X5.5906Y-4.498
X5.6703Y-4.498
X5.7293Y-4.498
X5.7805Y-4.2224
X5.7874Y-4.498
X5.8337Y-4.498
X5.8888Y-4.498
X5.9341Y-2.5108
X5.9469Y-4.498
X5.9754Y-2.5699
X5.9941Y-4.498
X6.1535Y-2.4911
X6.2244Y-2.5177
T2
X3.7Y-3.11
X3.75Y-3.11
X3.8Y-3.11
X3.85Y-3.11
X3.9Y-3.11
X4.0177Y-3.7667
X4.0187Y-3.8199
X4.0197Y-3.875
X4.0689Y-3.7667
X4.0689Y-3.8189
X4.0699Y-3.873
X4.3907Y-2.5659
X4.4459Y-2.5659
X4.7943Y-2.5659
X4.8465Y-2.5669
X5.188Y-2.5659
X5.2421Y-2.5659
X5.7461Y-2.5305
X5.8002Y-2.5305
X6.6644Y-4.1063
X6.6644Y-4.1634
X6.6644Y-4.2195
X6.6644Y-4.2746
X6.6644Y-4.3287
T3
X3.8Y-1.825
X3.8Y-1.925
X3.8Y-2.025
X3.8Y-2.125
X3.9Y-1.825
X3.9Y-1.925
X3.9Y-2.025
X3.9Y-2.125
X4.0Y-1.825
X4.0Y-1.925
X4.0Y-2.025
X4.0Y-2.125
X4.1Y-1.825
X4.1Y-1.925
X4.1Y-2.025
X4.1Y-2.125
X4.2Y-1.825
X4.2Y-1.925
X4.2Y-2.025
X4.2Y-2.125
X4.3Y-1.825
X4.3Y-1.925
X4.3Y-2.025
X4.3Y-2.125
X4.4Y-1.825
X4.4Y-1.925
X4.4Y-2.025
X4.4Y-2.125
X4.5Y-1.825
X4.5Y-1.925
X4.5Y-2.025
X4.5Y-2.125
X4.6Y-1.825
X4.6Y-1.925
X4.6Y-2.025
X4.6Y-2.125
X4.7Y-1.825
X4.7Y-1.925
X4.7Y-2.025
X4.7Y-2.125
X4.8Y-1.825
X4.8Y-1.925
X4.8Y-2.025
X4.8Y-2.125
X4.9Y-1.825
X4.9Y-1.925
X4.9Y-2.025
X4.9Y-2.125
X5.0Y-1.825
X5.0Y-1.925
X5.0Y-2.025
X5.0Y-2.125
X5.1Y-1.825
X5.1Y-1.925
X5.1Y-2.025
X5.1Y-2.125
X5.2Y-1.825
X5.2Y-1.925
X5.2Y-2.025
X5.2Y-2.125
X5.3Y-1.825
X5.3Y-1.925
X5.3Y-2.025
X5.3Y-2.125
X5.4Y-1.825
X5.4Y-1.925
X5.4Y-2.025
X5.4Y-2.125
X5.5Y-1.825
X5.5Y-1.925
X5.5Y-2.025
X5.5Y-2.125
X5.6Y-1.825
X5.6Y-1.925
X5.6Y-2.025
X5.6Y-2.125
X5.7Y-1.825
X5.7Y-1.925
X5.7Y-2.025
X5.7Y-2.125
X5.8Y-1.825
X5.8Y-1.925
X5.8Y-2.025
X5.8Y-2.125
X5.9Y-1.825
X5.9Y-1.925
X5.9Y-2.025
X5.9Y-2.125
X6.0Y-1.825
X6.0Y-1.925
X6.0Y-2.025
X6.0Y-2.125
X6.1Y-1.825
X6.1Y-1.925
X6.1Y-2.025
X6.1Y-2.125
X6.2Y-1.825
X6.2Y-1.925
X6.2Y-2.025
X6.2Y-2.125
X6.3Y-1.825
X6.3Y-1.925
X6.3Y-2.025
X6.3Y-2.125
T4
X3.7306Y-4.735
X3.8306Y-4.735
X4.0061Y-4.735
X4.1061Y-4.735
X4.2817Y-4.735
X4.3817Y-4.735
X4.56Y-4.7361
X4.66Y-4.7361
X4.8356Y-4.7361
X4.9356Y-4.7361
X5.1112Y-4.7361
X5.2112Y-4.7361
X5.7Y-1.69
X5.8Y-1.69
T5
X4.4722Y-3.8653
X4.4771Y-4.3791
X5.0364Y-4.0438
X5.0531Y-3.0128
X5.7693Y-4.0398
X5.7884Y-3.0148
T6
X3.45Y-5.2
X3.6Y-1.825
X6.5Y-1.825
X6.6Y-5.2
T0
M30
