G04 #@! TF.GenerationSoftware,KiCad,Pcbnew,(6.0.8)*
G04 #@! TF.CreationDate,2022-10-24T22:40:05+02:00*
G04 #@! TF.ProjectId,pcdu,70636475-2e6b-4696-9361-645f70636258,rev?*
G04 #@! TF.SameCoordinates,Original*
G04 #@! TF.FileFunction,Soldermask,Bot*
G04 #@! TF.FilePolarity,Negative*
%FSLAX46Y46*%
G04 Gerber Fmt 4.6, Leading zero omitted, Abs format (unit mm)*
G04 Created by KiCad (PCBNEW (6.0.8)) date 2022-10-24 22:40:05*
%MOMM*%
%LPD*%
G01*
G04 APERTURE LIST*
G04 Aperture macros list*
%AMRoundRect*
0 Rectangle with rounded corners*
0 $1 Rounding radius*
0 $2 $3 $4 $5 $6 $7 $8 $9 X,Y pos of 4 corners*
0 Add a 4 corners polygon primitive as box body*
4,1,4,$2,$3,$4,$5,$6,$7,$8,$9,$2,$3,0*
0 Add four circle primitives for the rounded corners*
1,1,$1+$1,$2,$3*
1,1,$1+$1,$4,$5*
1,1,$1+$1,$6,$7*
1,1,$1+$1,$8,$9*
0 Add four rect primitives between the rounded corners*
20,1,$1+$1,$2,$3,$4,$5,0*
20,1,$1+$1,$4,$5,$6,$7,0*
20,1,$1+$1,$6,$7,$8,$9,0*
20,1,$1+$1,$8,$9,$2,$3,0*%
G04 Aperture macros list end*
%ADD10C,1.365000*%
%ADD11C,6.400000*%
%ADD12R,1.700000X1.700000*%
%ADD13O,1.700000X1.700000*%
%ADD14C,3.450000*%
%ADD15C,2.390000*%
%ADD16R,0.900000X1.200000*%
%ADD17RoundRect,0.100000X0.637500X0.100000X-0.637500X0.100000X-0.637500X-0.100000X0.637500X-0.100000X0*%
%ADD18R,2.850000X4.000000*%
%ADD19RoundRect,0.243750X0.456250X-0.243750X0.456250X0.243750X-0.456250X0.243750X-0.456250X-0.243750X0*%
%ADD20RoundRect,0.243750X-0.456250X0.243750X-0.456250X-0.243750X0.456250X-0.243750X0.456250X0.243750X0*%
%ADD21RoundRect,0.243750X-0.243750X-0.456250X0.243750X-0.456250X0.243750X0.456250X-0.243750X0.456250X0*%
%ADD22RoundRect,0.243750X0.243750X0.456250X-0.243750X0.456250X-0.243750X-0.456250X0.243750X-0.456250X0*%
%ADD23R,3.600000X2.700000*%
%ADD24RoundRect,0.250000X0.625000X-0.375000X0.625000X0.375000X-0.625000X0.375000X-0.625000X-0.375000X0*%
%ADD25RoundRect,0.100000X0.100000X-0.675000X0.100000X0.675000X-0.100000X0.675000X-0.100000X-0.675000X0*%
%ADD26R,3.000000X3.000000*%
%ADD27RoundRect,0.150000X-0.725000X-0.150000X0.725000X-0.150000X0.725000X0.150000X-0.725000X0.150000X0*%
%ADD28RoundRect,0.250000X-0.787500X-1.025000X0.787500X-1.025000X0.787500X1.025000X-0.787500X1.025000X0*%
%ADD29RoundRect,0.250000X0.450000X-0.262500X0.450000X0.262500X-0.450000X0.262500X-0.450000X-0.262500X0*%
G04 APERTURE END LIST*
D10*
X96520000Y-53975000D03*
X96520000Y-51435000D03*
X99060000Y-53975000D03*
X99060000Y-51435000D03*
X101600000Y-53975000D03*
X101600000Y-51435000D03*
X104140000Y-53975000D03*
X104140000Y-51435000D03*
X106680000Y-53975000D03*
X106680000Y-51435000D03*
X109220000Y-53975000D03*
X109220000Y-51435000D03*
X111760000Y-53975000D03*
X111760000Y-51435000D03*
X114300000Y-53975000D03*
X114300000Y-51435000D03*
X116840000Y-53975000D03*
X116840000Y-51435000D03*
X119380000Y-53975000D03*
X119380000Y-51435000D03*
X121920000Y-53975000D03*
X121920000Y-51435000D03*
X124460000Y-53975000D03*
X124460000Y-51435000D03*
X127000000Y-53975000D03*
X127000000Y-51435000D03*
X129540000Y-53975000D03*
X129540000Y-51435000D03*
X132080000Y-53975000D03*
X132080000Y-51435000D03*
X134620000Y-53975000D03*
X134620000Y-51435000D03*
X137160000Y-53975000D03*
X137160000Y-51435000D03*
X139700000Y-53975000D03*
X139700000Y-51435000D03*
X142240000Y-53975000D03*
X142240000Y-51435000D03*
X144780000Y-53975000D03*
X144780000Y-51435000D03*
X147320000Y-53975000D03*
X147320000Y-51435000D03*
X149860000Y-53975000D03*
X149860000Y-51435000D03*
X152400000Y-53975000D03*
X152400000Y-51435000D03*
X154940000Y-53975000D03*
X154940000Y-51435000D03*
X157480000Y-53975000D03*
X157480000Y-51435000D03*
X160020000Y-53975000D03*
X160020000Y-51435000D03*
X96520000Y-48895000D03*
X96520000Y-46355000D03*
X99060000Y-48895000D03*
X99060000Y-46355000D03*
X101600000Y-48895000D03*
X101600000Y-46355000D03*
X104140000Y-48895000D03*
X104140000Y-46355000D03*
X106680000Y-48895000D03*
X106680000Y-46355000D03*
X109220000Y-48895000D03*
X109220000Y-46355000D03*
X111760000Y-48895000D03*
X111760000Y-46355000D03*
X114300000Y-48895000D03*
X114300000Y-46355000D03*
X116840000Y-48895000D03*
X116840000Y-46355000D03*
X119380000Y-48895000D03*
X119380000Y-46355000D03*
X121920000Y-48895000D03*
X121920000Y-46355000D03*
X124460000Y-48895000D03*
X124460000Y-46355000D03*
X127000000Y-48895000D03*
X127000000Y-46355000D03*
X129540000Y-48895000D03*
X129540000Y-46355000D03*
X132080000Y-48895000D03*
X132080000Y-46355000D03*
X134620000Y-48895000D03*
X134620000Y-46355000D03*
X137160000Y-48895000D03*
X137160000Y-46355000D03*
X139700000Y-48895000D03*
X139700000Y-46355000D03*
X142240000Y-48895000D03*
X142240000Y-46355000D03*
X144780000Y-48895000D03*
X144780000Y-46355000D03*
X147320000Y-48895000D03*
X147320000Y-46355000D03*
X149860000Y-48895000D03*
X149860000Y-46355000D03*
X152400000Y-48895000D03*
X152400000Y-46355000D03*
X154940000Y-48895000D03*
X154940000Y-46355000D03*
X157480000Y-48895000D03*
X157480000Y-46355000D03*
X160020000Y-48895000D03*
X160020000Y-46355000D03*
D11*
X91440000Y-46355000D03*
X165100000Y-46355000D03*
X87630000Y-132080000D03*
X167640000Y-132080000D03*
D12*
X144780000Y-42926000D03*
D13*
X147320000Y-42926000D03*
D12*
X125365000Y-120297500D03*
D13*
X122825000Y-120297500D03*
D12*
X132365000Y-120297500D03*
D13*
X129825000Y-120297500D03*
D12*
X118365000Y-120297500D03*
D13*
X115825000Y-120297500D03*
D14*
X99800000Y-108200000D03*
X155000000Y-92200000D03*
D15*
X163330000Y-108200000D03*
X91570000Y-70300000D03*
D14*
X99900000Y-86300000D03*
X155100000Y-70300000D03*
D12*
X97296000Y-120268000D03*
D13*
X94756000Y-120268000D03*
D12*
X104296000Y-120268000D03*
D13*
X101756000Y-120268000D03*
D12*
X111296000Y-120268000D03*
D13*
X108756000Y-120268000D03*
D16*
X98969583Y-93202917D03*
X102269583Y-93202917D03*
D17*
X116438583Y-95183958D03*
X116438583Y-95833958D03*
X116438583Y-96483958D03*
X116438583Y-97133958D03*
X116438583Y-97783958D03*
X116438583Y-98433958D03*
X116438583Y-99083958D03*
X116438583Y-99733958D03*
X116438583Y-100383958D03*
X116438583Y-101033958D03*
X110713583Y-101033958D03*
X110713583Y-100383958D03*
X110713583Y-99733958D03*
X110713583Y-99083958D03*
X110713583Y-98433958D03*
X110713583Y-97783958D03*
X110713583Y-97133958D03*
X110713583Y-96483958D03*
X110713583Y-95833958D03*
X110713583Y-95183958D03*
D18*
X113576083Y-98108958D03*
D19*
X148575000Y-84862500D03*
X148575000Y-82987500D03*
D20*
X151175000Y-74987500D03*
X151175000Y-76862500D03*
D21*
X112495500Y-82009000D03*
X114370500Y-82009000D03*
D22*
X117926500Y-82009000D03*
X116051500Y-82009000D03*
D21*
X112417000Y-73119000D03*
X114292000Y-73119000D03*
D22*
X117926500Y-73119000D03*
X116051500Y-73119000D03*
D21*
X110463583Y-102658958D03*
X112338583Y-102658958D03*
X110488583Y-93558958D03*
X112363583Y-93558958D03*
D16*
X98973983Y-90791037D03*
X102273983Y-90791037D03*
X98944583Y-100527917D03*
X102244583Y-100527917D03*
X98944583Y-103067917D03*
X102244583Y-103067917D03*
D20*
X105501083Y-95496458D03*
X105501083Y-97371458D03*
X107526083Y-95496458D03*
X107526083Y-97371458D03*
X105875000Y-108450000D03*
X105875000Y-110325000D03*
D23*
X156072000Y-79979000D03*
X156072000Y-88279000D03*
D19*
X118526083Y-100871458D03*
X118526083Y-98996458D03*
D22*
X118713583Y-102683958D03*
X116838583Y-102683958D03*
D24*
X118676083Y-97258958D03*
X118676083Y-94458958D03*
D19*
X105501083Y-100846458D03*
X105501083Y-98971458D03*
X107526083Y-100846458D03*
X107526083Y-98971458D03*
D25*
X149250000Y-79400000D03*
X148600000Y-79400000D03*
X147950000Y-79400000D03*
X147300000Y-79400000D03*
X146650000Y-79400000D03*
X146000000Y-79400000D03*
X145350000Y-79400000D03*
X144700000Y-79400000D03*
X144700000Y-73650000D03*
X145350000Y-73650000D03*
X146000000Y-73650000D03*
X146650000Y-73650000D03*
X147300000Y-73650000D03*
X147950000Y-73650000D03*
X148600000Y-73650000D03*
X149250000Y-73650000D03*
D26*
X146975000Y-76525000D03*
D27*
X112382000Y-87724000D03*
X112382000Y-86454000D03*
X112382000Y-85184000D03*
X112382000Y-83914000D03*
X117532000Y-83914000D03*
X117532000Y-85184000D03*
X117532000Y-86454000D03*
X117532000Y-87724000D03*
X112400000Y-78920000D03*
X112400000Y-77650000D03*
X112400000Y-76380000D03*
X112400000Y-75110000D03*
X117550000Y-75110000D03*
X117550000Y-76380000D03*
X117550000Y-77650000D03*
X117550000Y-78920000D03*
D28*
X135462500Y-74925000D03*
X141687500Y-74925000D03*
X153862500Y-75125000D03*
X160087500Y-75125000D03*
X134987500Y-101262500D03*
X141212500Y-101262500D03*
D19*
X129975000Y-84662500D03*
X129975000Y-82787500D03*
D20*
X132775000Y-74587500D03*
X132775000Y-76462500D03*
D23*
X137575000Y-79975000D03*
X137575000Y-88275000D03*
D25*
X130650000Y-79400000D03*
X130000000Y-79400000D03*
X129350000Y-79400000D03*
X128700000Y-79400000D03*
X128050000Y-79400000D03*
X127400000Y-79400000D03*
X126750000Y-79400000D03*
X126100000Y-79400000D03*
X126100000Y-73650000D03*
X126750000Y-73650000D03*
X127400000Y-73650000D03*
X128050000Y-73650000D03*
X128700000Y-73650000D03*
X129350000Y-73650000D03*
X130000000Y-73650000D03*
X130650000Y-73650000D03*
D26*
X128375000Y-76525000D03*
D25*
X130200000Y-105537500D03*
X129550000Y-105537500D03*
X128900000Y-105537500D03*
X128250000Y-105537500D03*
X127600000Y-105537500D03*
X126950000Y-105537500D03*
X126300000Y-105537500D03*
X125650000Y-105537500D03*
X125650000Y-99787500D03*
X126300000Y-99787500D03*
X126950000Y-99787500D03*
X127600000Y-99787500D03*
X128250000Y-99787500D03*
X128900000Y-99787500D03*
X129550000Y-99787500D03*
X130200000Y-99787500D03*
D26*
X127925000Y-102662500D03*
D20*
X132100000Y-101125000D03*
X132100000Y-103000000D03*
X150700000Y-101125000D03*
X150700000Y-103000000D03*
D23*
X137004800Y-106429500D03*
X137004800Y-114729500D03*
D19*
X129700000Y-110800000D03*
X129700000Y-108925000D03*
X148300000Y-110600000D03*
X148300000Y-108725000D03*
D28*
X153387500Y-101262500D03*
X159612500Y-101262500D03*
D23*
X155500000Y-106312500D03*
X155500000Y-114612500D03*
D25*
X148814000Y-105485500D03*
X148164000Y-105485500D03*
X147514000Y-105485500D03*
X146864000Y-105485500D03*
X146214000Y-105485500D03*
X145564000Y-105485500D03*
X144914000Y-105485500D03*
X144264000Y-105485500D03*
X144264000Y-99735500D03*
X144914000Y-99735500D03*
X145564000Y-99735500D03*
X146214000Y-99735500D03*
X146864000Y-99735500D03*
X147514000Y-99735500D03*
X148164000Y-99735500D03*
X148814000Y-99735500D03*
D26*
X146539000Y-102610500D03*
D22*
X116688583Y-93558958D03*
X114813583Y-93558958D03*
D21*
X110582083Y-106452917D03*
X112457083Y-106452917D03*
D22*
X116775083Y-106452917D03*
X114900083Y-106452917D03*
D20*
X107975000Y-108450000D03*
X107975000Y-110325000D03*
D17*
X116576083Y-108132917D03*
X116576083Y-108782917D03*
X116576083Y-109432917D03*
X116576083Y-110082917D03*
X116576083Y-110732917D03*
X116576083Y-111382917D03*
X116576083Y-112032917D03*
X116576083Y-112682917D03*
X116576083Y-113332917D03*
X116576083Y-113982917D03*
X110851083Y-113982917D03*
X110851083Y-113332917D03*
X110851083Y-112682917D03*
X110851083Y-112032917D03*
X110851083Y-111382917D03*
X110851083Y-110732917D03*
X110851083Y-110082917D03*
X110851083Y-109432917D03*
X110851083Y-108782917D03*
X110851083Y-108132917D03*
D18*
X113713583Y-111057917D03*
D19*
X118641583Y-113833417D03*
X118641583Y-111958417D03*
D22*
X118829083Y-115595917D03*
X116954083Y-115595917D03*
D19*
X107975000Y-113862500D03*
X107975000Y-111987500D03*
D21*
X110604083Y-115595917D03*
X112479083Y-115595917D03*
D24*
X118841583Y-110245917D03*
X118841583Y-107445917D03*
D19*
X105875000Y-113875000D03*
X105875000Y-112000000D03*
D29*
X108800000Y-84012500D03*
X108800000Y-82187500D03*
M02*
